<svg xmlns="http://www.w3.org/2000/svg" width="24" height="24" viewBox="0 0 24 24">
  <g id="Grupo_8207" data-name="Grupo 8207" transform="translate(-1067 -248)">
    <rect id="Rectángulo_5589" data-name="Rectángulo 5589" width="24" height="24" transform="translate(1067 248)" fill="none"/>
    <path id="Trazado_28835" data-name="Trazado 28835" d="M4.277,7.511l-.025-.685-.246-.467L2.28,5.081l.1-.07.189-.81L2.14,3.448,1.417,1.327l2.1-.1L5.43,2.377l.283.085,1.907.094.527-.484.6.06L10.595,4l.864,0,.341-.338.618.119,1.4,2.341.318.262.858.309-.352,2.164.046.349L15.86,11.8l.313.309,1,.434.474,0,1.739-.714.347-.372.447-1.347,1.384-.6,1.086.092-.431,1.859-.945.783-.879-.1-.673.506-.068.4.155.514.052.055-.363.054-.5.467-.149.656-1.211-.992-.688-.058-1.084.616-5.634-2.942-.4-.547.246-.518.054-.324-.111-1.066-.186-.379-1.78-1.7.114-.182-.059-.728L5.918,3.508,3.69,2.088l-.877.771.729,1.586.14.567.175.3.655.609.308.833L5.966,8.649l-.293.295ZM3.64,0,.548.148,0,.955,1,3.9l.227.418L.884,4.55l-.023,1L3.044,7.164l.023.628.173.4,1.994,2.044.87,0L7.169,9.168l.087-.748L5.943,6.277,5.6,5.363l-.155-.235-.627-.583-.091-.37.33.206,1.83,2.069-.137.217.1.765L8.829,9.319l.069.674-.328.692.06.624.7.954.208.178L15.6,15.6l.583-.01,1.008-.573,1.649,1.351.981-.336.276-1.211,1.093-.162.357-1.017L21.4,13.49l.453-.133,1.3-1.081.2-.333L24,9.2l-.541-.744-1.941-.167-.295.048L19.449,9.1l-.335.367-.447,1.341-1.243.51-.551-.239-1-2.2.405-2.483-.4-.674-1.131-.4L13.325,2.929l-.406-.286-1.2-.233-.548.166-.135.136L9.454,1.118,9.082.94,7.73.806l-.581.508L5.925,1.251,3.982.086Z" transform="translate(1067 252)"/>
  </g>
</svg>
