<svg id="user" xmlns="http://www.w3.org/2000/svg" width="24" height="24" viewBox="0 0 24 24">
  <g id="Grupo_8283" data-name="Grupo 8283">
    <path id="Trazado_28915" data-name="Trazado 28915" d="M14.25,3.5A3.75,3.75,0,1,1,10.5,7.25,3.75,3.75,0,0,1,14.25,3.5m0-1.5A5.25,5.25,0,1,0,19.5,7.25,5.25,5.25,0,0,0,14.25,2Z" transform="translate(-2.25 -0.5)"/>
    <path id="Trazado_28916" data-name="Trazado 28916" d="M21,27H19.5V23.25a3.75,3.75,0,0,0-3.75-3.75h-4.5A3.75,3.75,0,0,0,7.5,23.25V27H6V23.25A5.25,5.25,0,0,1,11.25,18h4.5A5.25,5.25,0,0,1,21,23.25Z" transform="translate(-1.5 -4.5)"/>
  </g>
  <rect id="_Transparent_Rectangle_" data-name="&lt;Transparent Rectangle&gt;" width="24" height="24" fill="none"/>
</svg>
