<?xml version="1.0" standalone="no"?>
<!DOCTYPE svg PUBLIC "-//W3C//DTD SVG 20010904//EN"
 "http://www.w3.org/TR/2001/REC-SVG-20010904/DTD/svg10.dtd">
<svg version="1.0" xmlns="http://www.w3.org/2000/svg"
 width="102.000000pt" height="107.000000pt" viewBox="0 0 102.000000 107.000000"
 preserveAspectRatio="xMidYMid meet">

<g transform="translate(0.000000,107.000000) scale(0.100000,-0.100000)"
fill="#000000" stroke="none">
<path d="M256 991 c-4 -5 2 -7 13 -4 32 8 35 -17 5 -48 l-28 -29 35 1 c25 1
28 3 11 6 l-24 5 22 23 c13 14 20 31 17 39 -7 17 -42 22 -51 7z"/>
<path d="M378 993 c6 -2 12 -20 12 -38 0 -18 -6 -36 -12 -38 -7 -3 1 -5 17 -5
17 0 24 2 18 5 -8 2 -13 22 -13 44 0 31 -4 39 -17 38 -11 0 -13 -3 -5 -6z"/>
<path d="M582 988 c-14 -14 -15 -47 -3 -66 14 -23 46 -10 46 18 0 20 -5 25
-23 24 -12 0 -21 4 -19 10 2 6 13 11 25 10 12 0 19 3 16 8 -7 12 -28 10 -42
-4z m34 -39 c10 -17 -13 -36 -27 -22 -12 12 -4 33 11 33 5 0 12 -5 16 -11z"/>
<path d="M712 993 l28 -4 -20 -40 c-11 -21 -18 -39 -15 -39 5 0 45 75 45 85 0
3 -15 4 -32 4 -31 -2 -31 -2 -6 -6z"/>
<path d="M498 943 c7 -3 16 -2 19 1 4 3 -2 6 -13 5 -11 0 -14 -3 -6 -6z"/>
<path d="M262 788 c-14 -14 -15 -47 -3 -66 14 -23 46 -10 46 18 0 20 -5 25
-23 24 -12 0 -21 4 -19 10 2 6 13 11 25 10 12 0 19 3 16 8 -7 12 -28 10 -42
-4z m34 -39 c10 -17 -13 -36 -27 -22 -12 12 -4 33 11 33 5 0 12 -5 16 -11z"/>
<path d="M392 793 l28 -4 -20 -40 c-11 -21 -18 -39 -15 -39 5 0 45 75 45 85 0
3 -15 4 -32 4 -31 -2 -31 -2 -6 -6z"/>
<path d="M574 785 c-10 -26 4 -48 27 -42 13 3 19 1 16 -6 -2 -7 -14 -12 -26
-11 -14 0 -18 -3 -12 -9 12 -12 40 -2 47 18 11 27 -5 65 -27 65 -11 0 -22 -7
-25 -15z m42 -6 c10 -17 -13 -36 -27 -22 -12 12 -4 33 11 33 5 0 12 -5 16 -11z"/>
<path d="M707 771 c-22 -37 -21 -41 3 -41 11 0 20 -6 20 -12 0 -10 2 -10 8 -1
9 15 3 83 -7 83 -4 0 -14 -13 -24 -29z m23 -11 c0 -11 -7 -20 -15 -20 -13 0
-14 4 -5 20 6 11 13 20 15 20 3 0 5 -9 5 -20z"/>
<path d="M498 743 c7 -3 16 -2 19 1 4 3 -2 6 -13 5 -11 0 -14 -3 -6 -6z"/>
<path d="M254 585 c-10 -26 4 -48 27 -42 13 3 19 1 16 -6 -2 -7 -14 -12 -26
-11 -14 0 -18 -3 -12 -9 12 -12 40 -2 47 18 11 27 -5 65 -27 65 -11 0 -22 -7
-25 -15z m42 -6 c10 -17 -13 -36 -27 -22 -12 12 -4 33 11 33 5 0 12 -5 16 -11z"/>
<path d="M387 571 c-22 -37 -21 -41 3 -41 11 0 20 -6 20 -12 0 -10 2 -10 8 -1
9 15 3 83 -7 83 -4 0 -14 -13 -24 -29z m23 -11 c0 -11 -7 -20 -15 -20 -13 0
-14 4 -5 20 6 11 13 20 15 20 3 0 5 -9 5 -20z"/>
<path d="M578 593 c6 -2 12 -20 12 -38 0 -18 -6 -36 -12 -38 -7 -3 1 -5 17 -5
17 0 24 2 18 5 -8 2 -13 22 -13 44 0 31 -4 39 -17 38 -11 0 -13 -3 -5 -6z"/>
<path d="M658 593 c6 -2 12 -20 12 -38 0 -18 -6 -36 -12 -38 -7 -3 1 -5 17 -5
17 0 24 2 18 5 -8 2 -13 22 -13 44 0 31 -4 39 -17 38 -11 0 -13 -3 -5 -6z"/>
<path d="M774 585 c-10 -26 4 -48 27 -42 13 3 19 1 16 -6 -2 -7 -14 -12 -26
-11 -14 0 -18 -3 -12 -9 12 -12 40 -2 47 18 11 27 -5 65 -27 65 -11 0 -22 -7
-25 -15z m42 -6 c10 -17 -13 -36 -27 -22 -12 12 -4 33 11 33 5 0 12 -5 16 -11z"/>
<path d="M498 543 c7 -3 16 -2 19 1 4 3 -2 6 -13 5 -11 0 -14 -3 -6 -6z"/>
<path d="M105 348 l-70 -73 73 70 c67 64 77 75 69 75 -1 0 -34 -33 -72 -72z"/>
<path d="M258 393 c6 -2 12 -20 12 -38 0 -18 -6 -36 -12 -38 -7 -3 1 -5 17 -5
17 0 24 2 18 5 -8 2 -13 22 -13 44 0 31 -4 39 -17 38 -11 0 -13 -3 -5 -6z"/>
<path d="M338 393 c6 -2 12 -20 12 -38 0 -18 -6 -36 -12 -38 -7 -3 1 -5 17 -5
17 0 24 2 18 5 -8 2 -13 22 -13 44 0 31 -4 39 -17 38 -11 0 -13 -3 -5 -6z"/>
<path d="M454 385 c-10 -26 4 -48 27 -42 13 3 19 1 16 -6 -2 -7 -14 -12 -26
-11 -14 0 -18 -3 -12 -9 12 -12 40 -2 47 18 11 27 -5 65 -27 65 -11 0 -22 -7
-25 -15z m42 -6 c10 -17 -13 -36 -27 -22 -12 12 -4 33 11 33 5 0 12 -5 16 -11z"/>
<path d="M656 392 c-3 -5 6 -7 19 -4 29 5 36 -24 8 -31 -17 -4 -17 -5 0 -6 9
0 17 -8 17 -17 0 -12 -7 -15 -26 -11 -16 3 -22 1 -16 -5 6 -6 18 -8 28 -6 15
2 19 12 19 43 0 33 -4 41 -22 43 -11 2 -24 -1 -27 -6z"/>
<path d="M736 392 c-3 -5 6 -7 19 -4 29 5 36 -24 8 -31 -17 -4 -17 -5 0 -6 9
0 17 -8 17 -17 0 -12 -7 -15 -26 -11 -16 3 -22 1 -16 -5 6 -6 18 -8 28 -6 15
2 19 12 19 43 0 33 -4 41 -22 43 -11 2 -24 -1 -27 -6z"/>
<path d="M856 391 c-4 -5 2 -7 13 -4 32 8 35 -17 5 -48 l-28 -29 35 1 c25 1
28 3 11 6 l-24 5 22 23 c13 14 20 31 17 39 -7 17 -42 22 -51 7z"/>
<path d="M578 343 c7 -3 16 -2 19 1 4 3 -2 6 -13 5 -11 0 -14 -3 -6 -6z"/>
<path d="M105 148 l-70 -73 73 70 c39 38 72 71 72 72 0 8 -11 -2 -75 -69z"/>
<path d="M256 192 c-3 -5 6 -7 19 -4 29 5 36 -24 8 -31 -17 -4 -17 -5 0 -6 9
0 17 -8 17 -17 0 -12 -7 -15 -26 -11 -16 3 -22 1 -16 -5 6 -6 18 -8 28 -6 15
2 19 12 19 43 0 33 -4 41 -22 43 -11 2 -24 -1 -27 -6z"/>
<path d="M336 192 c-3 -5 6 -7 19 -4 29 5 36 -24 8 -31 -17 -4 -17 -5 0 -6 9
0 17 -8 17 -17 0 -12 -7 -15 -26 -11 -16 3 -22 1 -16 -5 6 -6 18 -8 28 -6 15
2 19 12 19 43 0 33 -4 41 -22 43 -11 2 -24 -1 -27 -6z"/>
<path d="M456 191 c-4 -5 2 -7 13 -4 32 8 35 -17 5 -48 l-28 -29 35 1 c25 1
28 3 11 6 l-24 5 22 23 c13 14 20 31 17 39 -7 17 -42 22 -51 7z"/>
<path d="M662 188 c-14 -14 -15 -47 -3 -66 14 -23 46 -10 46 18 0 20 -5 25
-23 24 -12 0 -21 4 -19 10 2 6 13 11 25 10 12 0 19 3 16 8 -7 12 -28 10 -42
-4z m34 -39 c10 -17 -13 -36 -27 -22 -12 12 -4 33 11 33 5 0 12 -5 16 -11z"/>
<path d="M734 185 c-10 -26 4 -48 27 -42 13 3 19 1 16 -6 -2 -7 -14 -12 -26
-11 -14 0 -18 -3 -12 -9 12 -12 40 -2 47 18 11 27 -5 65 -27 65 -11 0 -22 -7
-25 -15z m42 -6 c10 -17 -13 -36 -27 -22 -12 12 -4 33 11 33 5 0 12 -5 16 -11z"/>
<path d="M856 191 c-4 -5 2 -7 13 -4 32 8 35 -17 5 -48 l-28 -29 35 1 c25 1
28 3 11 6 l-24 5 22 23 c13 14 20 31 17 39 -7 17 -42 22 -51 7z"/>
<path d="M578 143 c7 -3 16 -2 19 1 4 3 -2 6 -13 5 -11 0 -14 -3 -6 -6z"/>
</g>
</svg>
