<?xml version="1.0" standalone="no"?>
<!DOCTYPE svg PUBLIC "-//W3C//DTD SVG 20010904//EN"
 "http://www.w3.org/TR/2001/REC-SVG-20010904/DTD/svg10.dtd">
<svg version="1.0" xmlns="http://www.w3.org/2000/svg"
 width="114.000000pt" height="113.000000pt" viewBox="0 0 114.000000 113.000000"
 preserveAspectRatio="xMidYMid meet">

<g transform="translate(0.000000,113.000000) scale(0.100000,-0.100000)"
fill="#000000" stroke="none">
<path d="M263 1005 c0 -27 2 -40 4 -27 3 15 11 22 28 22 17 0 25 -7 28 -22 2
-13 4 0 4 27 0 28 -2 40 -4 28 -3 -16 -11 -23 -28 -23 -17 0 -25 7 -28 23 -2
12 -4 0 -4 -28z"/>
<path d="M498 1039 c-2 -6 -2 -26 0 -45 3 -24 9 -34 21 -33 10 0 11 2 4 6 -15
5 -18 50 -4 55 5 2 3 8 -4 15 -9 9 -15 9 -17 2z"/>
<path d="M682 1038 c-14 -14 -15 -47 -3 -66 14 -23 46 -10 46 18 0 20 -5 25
-23 24 -12 0 -21 4 -19 10 2 6 13 11 25 10 12 0 19 3 16 8 -7 12 -28 10 -42
-4z m34 -39 c10 -17 -13 -36 -27 -22 -12 12 -4 33 11 33 5 0 12 -5 16 -11z"/>
<path d="M807 1021 c-22 -37 -21 -41 3 -41 11 0 20 -6 20 -12 0 -10 2 -10 8
-1 9 15 3 83 -7 83 -4 0 -14 -13 -24 -29z m23 -11 c0 -11 -7 -20 -15 -20 -13
0 -14 4 -5 20 6 11 13 20 15 20 3 0 5 -9 5 -20z"/>
<path d="M864 1035 c-8 -19 5 -38 22 -31 17 6 17 2 3 -27 -9 -20 -9 -20 9 2
l19 24 6 -23 c7 -26 32 -22 32 6 0 12 -6 18 -17 18 -21 -2 -21 0 -7 29 9 20 9
20 -9 -2 -19 -23 -19 -23 -25 -2 -6 24 -25 28 -33 6z m26 -10 c0 -8 -4 -15
-10 -15 -5 0 -10 7 -10 15 0 8 5 15 10 15 6 0 10 -7 10 -15z m60 -40 c0 -8 -4
-15 -10 -15 -5 0 -10 7 -10 15 0 8 5 15 10 15 6 0 10 -7 10 -15z"/>
<path d="M356 1022 c-3 -5 6 -7 19 -4 14 2 25 0 25 -6 0 -6 -10 -12 -22 -14
-34 -5 -29 -33 5 -34 26 -1 28 2 25 30 -2 23 -9 32 -25 34 -11 2 -24 -1 -27
-6z m39 -42 c-3 -5 -13 -10 -21 -10 -8 0 -14 5 -14 10 0 6 9 10 21 10 11 0 17
-4 14 -10z"/>
<path d="M435 1020 c-8 -14 3 -30 21 -30 8 0 14 -5 14 -11 0 -7 -9 -9 -21 -6
-16 4 -19 3 -11 -5 12 -12 42 -4 42 13 0 6 -9 13 -20 16 -11 3 -20 10 -20 15
0 6 9 8 20 5 11 -3 18 -1 14 4 -7 12 -31 11 -39 -1z"/>
<path d="M556 1022 c-3 -5 6 -7 19 -4 14 2 25 0 25 -6 0 -6 -10 -12 -22 -14
-34 -5 -29 -33 5 -34 26 -1 28 2 25 30 -2 23 -9 32 -25 34 -11 2 -24 -1 -27
-6z m39 -42 c-3 -5 -13 -10 -21 -10 -8 0 -14 5 -14 10 0 6 9 10 21 10 11 0 17
-4 14 -10z"/>
<path d="M272 838 c-14 -14 -15 -47 -3 -66 14 -23 46 -10 46 18 0 20 -5 25
-23 24 -12 0 -21 4 -19 10 2 6 13 11 25 10 12 0 19 3 16 8 -7 12 -28 10 -42
-4z m34 -39 c10 -17 -13 -36 -27 -22 -12 12 -4 33 11 33 5 0 12 -5 16 -11z"/>
<path d="M397 821 c-22 -37 -21 -41 3 -41 11 0 20 -6 20 -12 0 -10 2 -10 8 -1
9 15 3 83 -7 83 -4 0 -14 -13 -24 -29z m23 -11 c0 -11 -7 -20 -15 -20 -13 0
-14 4 -5 20 6 11 13 20 15 20 3 0 5 -9 5 -20z"/>
<path d="M586 838 c-3 -7 -4 -26 -3 -43 2 -25 6 -30 27 -30 23 0 25 4 25 40 0
34 -3 40 -23 43 -12 2 -24 -3 -26 -10z m44 -13 c0 -8 -9 -15 -20 -15 -11 0
-20 7 -20 15 0 8 9 15 20 15 11 0 20 -7 20 -15z m0 -40 c0 -8 -9 -15 -20 -15
-11 0 -20 7 -20 15 0 8 9 15 20 15 11 0 20 -7 20 -15z"/>
<path d="M704 835 c-10 -26 4 -48 27 -42 13 3 19 1 16 -6 -2 -7 -14 -12 -26
-11 -14 0 -18 -3 -12 -9 12 -12 40 -2 47 18 11 27 -5 65 -27 65 -11 0 -22 -7
-25 -15z m42 -6 c10 -17 -13 -36 -27 -22 -12 12 -4 33 11 33 5 0 12 -5 16 -11z"/>
<path d="M774 835 c-8 -19 5 -38 22 -31 17 6 17 2 3 -27 -9 -20 -9 -20 9 2
l19 24 6 -23 c7 -26 32 -22 32 6 0 12 -6 18 -17 18 -21 -2 -21 0 -7 29 9 20 9
20 -9 -2 -19 -23 -19 -23 -25 -2 -6 24 -25 28 -33 6z m26 -10 c0 -8 -4 -15
-10 -15 -5 0 -10 7 -10 15 0 8 5 15 10 15 6 0 10 -7 10 -15z m60 -40 c0 -8 -4
-15 -10 -15 -5 0 -10 7 -10 15 0 8 5 15 10 15 6 0 10 -7 10 -15z"/>
<path d="M508 793 c7 -3 16 -2 19 1 4 3 -2 6 -13 5 -11 0 -14 -3 -6 -6z"/>
<path d="M115 598 l-70 -73 73 70 c39 38 72 71 72 72 0 8 -11 -2 -75 -69z"/>
<path d="M266 638 c-3 -7 -4 -26 -3 -43 2 -25 6 -30 27 -30 23 0 25 4 25 40 0
34 -3 40 -23 43 -12 2 -24 -3 -26 -10z m44 -13 c0 -8 -9 -15 -20 -15 -11 0
-20 7 -20 15 0 8 9 15 20 15 11 0 20 -7 20 -15z m0 -40 c0 -8 -9 -15 -20 -15
-11 0 -20 7 -20 15 0 8 9 15 20 15 11 0 20 -7 20 -15z"/>
<path d="M384 635 c-10 -26 4 -48 27 -42 13 3 19 1 16 -6 -2 -7 -14 -12 -26
-11 -14 0 -18 -3 -12 -9 12 -12 40 -2 47 18 11 27 -5 65 -27 65 -11 0 -22 -7
-25 -15z m42 -6 c10 -17 -13 -36 -27 -22 -12 12 -4 33 11 33 5 0 12 -5 16 -11z"/>
<path d="M588 643 c6 -2 12 -20 12 -38 0 -18 -6 -36 -12 -38 -7 -3 1 -5 17 -5
17 0 24 2 18 5 -8 2 -13 22 -13 44 0 31 -4 39 -17 38 -11 0 -13 -3 -5 -6z"/>
<path d="M668 643 c6 -2 12 -20 12 -38 0 -18 -6 -36 -12 -38 -7 -3 1 -5 17 -5
17 0 24 2 18 5 -8 2 -13 22 -13 44 0 31 -4 39 -17 38 -11 0 -13 -3 -5 -6z"/>
<path d="M786 642 c-3 -5 6 -7 19 -4 29 5 36 -24 8 -31 -17 -4 -17 -5 0 -6 9
0 17 -8 17 -17 0 -12 -7 -15 -26 -11 -16 3 -22 1 -16 -5 6 -6 18 -8 28 -6 15
2 19 12 19 43 0 33 -4 41 -22 43 -11 2 -24 -1 -27 -6z"/>
<path d="M854 635 c-8 -19 5 -38 22 -31 17 6 17 2 3 -27 -9 -20 -9 -20 9 2
l19 24 6 -23 c7 -26 32 -22 32 6 0 12 -6 18 -17 18 -21 -2 -21 0 -7 29 9 20 9
20 -9 -2 -19 -23 -19 -23 -25 -2 -6 24 -25 28 -33 6z m26 -10 c0 -8 -4 -15
-10 -15 -5 0 -10 7 -10 15 0 8 5 15 10 15 6 0 10 -7 10 -15z m60 -40 c0 -8 -4
-15 -10 -15 -5 0 -10 7 -10 15 0 8 5 15 10 15 6 0 10 -7 10 -15z"/>
<path d="M508 593 c7 -3 16 -2 19 1 4 3 -2 6 -13 5 -11 0 -14 -3 -6 -6z"/>
<path d="M268 443 c6 -2 12 -20 12 -38 0 -18 -6 -36 -12 -38 -7 -3 1 -5 17 -5
17 0 24 2 18 5 -8 2 -13 22 -13 44 0 31 -4 39 -17 38 -11 0 -13 -3 -5 -6z"/>
<path d="M348 443 c6 -2 12 -20 12 -38 0 -18 -6 -36 -12 -38 -7 -3 1 -5 17 -5
17 0 24 2 18 5 -8 2 -13 22 -13 44 0 31 -4 39 -17 38 -11 0 -13 -3 -5 -6z"/>
<path d="M466 442 c-3 -5 6 -7 19 -4 29 5 36 -24 8 -31 -17 -4 -17 -5 0 -6 9
0 17 -8 17 -17 0 -12 -7 -15 -26 -11 -16 3 -22 1 -16 -5 6 -6 18 -8 28 -6 15
2 19 12 19 43 0 33 -4 41 -22 43 -11 2 -24 -1 -27 -6z"/>
<path d="M666 442 c-3 -5 6 -7 19 -4 29 5 36 -24 8 -31 -17 -4 -17 -5 0 -6 9
0 17 -8 17 -17 0 -12 -7 -15 -26 -11 -16 3 -22 1 -16 -5 6 -6 18 -8 28 -6 15
2 19 12 19 43 0 33 -4 41 -22 43 -11 2 -24 -1 -27 -6z"/>
<path d="M748 443 c6 -2 12 -20 12 -38 0 -18 -6 -36 -12 -38 -7 -3 1 -5 17 -5
17 0 24 2 18 5 -8 2 -13 22 -13 44 0 31 -4 39 -17 38 -11 0 -13 -3 -5 -6z"/>
<path d="M882 443 l28 -4 -20 -40 c-11 -21 -18 -39 -15 -39 5 0 45 75 45 85 0
3 -15 4 -32 4 -31 -2 -31 -2 -6 -6z"/>
<path d="M934 435 c-8 -19 5 -38 22 -31 17 6 17 2 3 -27 -9 -20 -9 -20 9 2
l19 24 6 -23 c7 -26 32 -22 32 6 0 12 -6 18 -17 18 -21 -2 -21 0 -7 29 9 20 9
20 -9 -2 -19 -23 -19 -23 -25 -2 -6 24 -25 28 -33 6z m26 -10 c0 -8 -4 -15
-10 -15 -5 0 -10 7 -10 15 0 8 5 15 10 15 6 0 10 -7 10 -15z m60 -40 c0 -8 -4
-15 -10 -15 -5 0 -10 7 -10 15 0 8 5 15 10 15 6 0 10 -7 10 -15z"/>
<path d="M588 393 c7 -3 16 -2 19 1 4 3 -2 6 -13 5 -11 0 -14 -3 -6 -6z"/>
<path d="M115 198 l-70 -73 73 70 c67 64 77 75 69 75 -1 0 -34 -33 -72 -72z"/>
<path d="M266 242 c-3 -5 6 -7 19 -4 29 5 36 -24 8 -31 -17 -4 -17 -5 0 -6 9
0 17 -8 17 -17 0 -12 -7 -15 -26 -11 -16 3 -22 1 -16 -5 6 -6 18 -8 28 -6 15
2 19 12 19 43 0 33 -4 41 -22 43 -11 2 -24 -1 -27 -6z"/>
<path d="M348 243 c6 -2 12 -20 12 -38 0 -18 -6 -36 -12 -38 -7 -3 1 -5 17 -5
17 0 24 2 18 5 -8 2 -13 22 -13 44 0 31 -4 39 -17 38 -11 0 -13 -3 -5 -6z"/>
<path d="M482 243 l28 -4 -20 -40 c-11 -21 -18 -39 -15 -39 5 0 45 75 45 85 0
3 -15 4 -32 4 -31 -2 -31 -2 -6 -6z"/>
<path d="M672 238 c-14 -14 -15 -47 -3 -66 14 -23 46 -10 46 18 0 20 -5 25
-23 24 -12 0 -21 4 -19 10 2 6 13 11 25 10 12 0 19 3 16 8 -7 12 -28 10 -42
-4z m34 -39 c10 -17 -13 -36 -27 -22 -12 12 -4 33 11 33 5 0 12 -5 16 -11z"/>
<path d="M740 231 c0 -13 8 -21 23 -23 30 -4 29 -33 -1 -32 -14 0 -19 -3 -13
-9 17 -17 46 -3 46 23 0 18 -6 26 -22 28 -13 2 -23 7 -23 12 0 5 10 11 23 13
19 4 18 4 -5 6 -21 1 -28 -4 -28 -18z"/>
<path d="M882 243 l28 -4 -20 -40 c-11 -21 -18 -39 -15 -39 5 0 45 75 45 85 0
3 -15 4 -32 4 -31 -2 -31 -2 -6 -6z"/>
<path d="M934 235 c-8 -19 5 -38 22 -31 17 6 17 2 3 -27 -9 -20 -9 -20 9 2
l19 24 6 -23 c7 -26 32 -22 32 6 0 12 -6 18 -17 18 -21 -2 -21 0 -7 29 9 20 9
20 -9 -2 -19 -23 -19 -23 -25 -2 -6 24 -25 28 -33 6z m26 -10 c0 -8 -4 -15
-10 -15 -5 0 -10 7 -10 15 0 8 5 15 10 15 6 0 10 -7 10 -15z m60 -40 c0 -8 -4
-15 -10 -15 -5 0 -10 7 -10 15 0 8 5 15 10 15 6 0 10 -7 10 -15z"/>
<path d="M588 193 c7 -3 16 -2 19 1 4 3 -2 6 -13 5 -11 0 -14 -3 -6 -6z"/>
<path d="M43 3 c9 -2 23 -2 30 0 6 3 -1 5 -18 5 -16 0 -22 -2 -12 -5z"/>
</g>
</svg>
