<?xml version="1.0" standalone="no"?>
<!DOCTYPE svg PUBLIC "-//W3C//DTD SVG 20010904//EN"
 "http://www.w3.org/TR/2001/REC-SVG-20010904/DTD/svg10.dtd">
<svg version="1.0" xmlns="http://www.w3.org/2000/svg"
 width="532.000000pt" height="108.000000pt" viewBox="0 0 532.000000 108.000000"
 preserveAspectRatio="xMidYMid meet">

<g transform="translate(0.000000,108.000000) scale(0.100000,-0.100000)"
fill="#000000" stroke="none">
<path d="M961 972 c-1 -52 -1 -53 27 -50 23 3 27 8 27 33 0 23 -5 31 -22 33
-12 2 -24 11 -26 20 -3 9 -5 -7 -6 -36z m46 -8 c8 -21 -13 -42 -28 -27 -13 13
-5 43 11 43 6 0 13 -7 17 -16z"/>
<path d="M1043 970 c0 -30 2 -43 4 -27 2 15 2 39 0 55 -2 15 -4 2 -4 -28z"/>
<path d="M1870 1006 c0 -8 -10 -16 -22 -18 -18 -2 -23 -10 -23 -33 0 -25 4
-30 28 -33 26 -3 27 -2 27 47 0 28 -2 51 -5 51 -3 0 -5 -6 -5 -14z m-3 -42 c8
-21 -13 -42 -28 -27 -13 13 -5 43 11 43 6 0 13 -7 17 -16z"/>
<path d="M2372 1003 c-4 -10 -5 -34 -1 -53 l6 -35 2 33 c0 18 6 32 14 32 8 0
7 4 -3 10 -13 9 -13 11 0 20 9 6 11 10 3 10 -7 0 -16 -8 -21 -17z"/>
<path d="M242 965 c1 -46 1 -47 7 -15 6 32 8 33 15 13 4 -13 11 -23 16 -23 5
0 12 10 16 23 7 20 9 19 15 -13 6 -32 6 -31 7 15 1 45 0 48 -13 31 -8 -10 -17
-24 -20 -30 -4 -8 -6 -8 -10 0 -3 6 -12 20 -20 30 -13 17 -14 14 -13 -31z"/>
<path d="M1608 999 c-2 -6 -2 -26 0 -45 3 -24 9 -34 21 -33 10 0 11 2 4 6 -15
5 -18 50 -4 55 5 2 3 8 -4 15 -9 9 -15 9 -17 2z"/>
<path d="M2118 999 c-2 -6 -2 -26 0 -45 3 -24 9 -34 21 -33 10 0 11 2 4 6 -15
5 -18 50 -4 55 5 2 3 8 -4 15 -9 9 -15 9 -17 2z"/>
<path d="M343 958 c2 -28 6 -33 30 -34 25 -1 27 2 26 35 -1 36 -1 36 -8 6 -9
-42 -38 -45 -45 -6 l-6 31 3 -32z"/>
<path d="M421 951 c1 -36 1 -36 8 -6 8 40 38 46 44 8 4 -28 4 -28 3 2 -1 26
-5 30 -28 31 -26 1 -28 -2 -27 -35z"/>
<path d="M585 980 c-8 -14 3 -30 21 -30 8 0 14 -5 14 -11 0 -7 -9 -9 -21 -6
-16 4 -19 3 -11 -5 12 -12 42 -4 42 13 0 6 -9 13 -20 16 -11 3 -20 10 -20 15
0 6 9 8 20 5 11 -3 18 -1 14 4 -7 12 -31 11 -39 -1z"/>
<path d="M653 955 c0 -22 2 -30 4 -17 2 12 2 30 0 40 -3 9 -5 -1 -4 -23z"/>
<path d="M681 951 c1 -36 1 -36 8 -6 8 40 38 46 44 8 4 -28 4 -28 3 2 -1 26
-5 30 -28 31 -26 1 -28 -2 -27 -35z"/>
<path d="M801 938 c1 -29 3 -45 6 -36 2 9 14 18 26 20 17 2 22 10 22 33 0 25
-4 30 -27 33 -28 3 -28 2 -27 -50z m46 26 c8 -21 -13 -42 -28 -27 -13 13 -5
43 11 43 6 0 13 -7 17 -16z"/>
<path d="M884 976 c-11 -29 0 -51 26 -51 21 0 25 5 25 30 0 24 -5 31 -23 33
-13 2 -24 -3 -28 -12z m43 -12 c8 -21 -13 -42 -28 -27 -13 13 -5 43 11 43 6 0
13 -7 17 -16z"/>
<path d="M1076 982 c-3 -5 6 -7 19 -4 14 2 25 0 25 -6 0 -6 -10 -12 -22 -14
-34 -5 -29 -33 5 -34 26 -1 28 2 25 30 -2 23 -9 32 -25 34 -11 2 -24 -1 -27
-6z m39 -42 c-3 -5 -13 -10 -21 -10 -8 0 -14 5 -14 10 0 6 9 10 21 10 11 0 17
-4 14 -10z"/>
<path d="M1157 983 c-4 -3 -7 -17 -7 -30 0 -26 25 -42 42 -25 7 7 4 10 -8 9
-13 -1 -19 5 -19 18 0 13 6 20 17 19 10 -1 15 2 12 7 -6 11 -28 12 -37 2z"/>
<path d="M1223 955 c0 -22 2 -30 4 -17 2 12 2 30 0 40 -3 9 -5 -1 -4 -23z"/>
<path d="M1254 976 c-11 -29 0 -51 26 -51 21 0 25 5 25 30 0 24 -5 31 -23 33
-13 2 -24 -3 -28 -12z m43 -12 c8 -21 -13 -42 -28 -27 -13 13 -5 43 11 43 6 0
13 -7 17 -16z"/>
<path d="M1331 951 c1 -36 1 -36 8 -6 8 40 38 46 44 8 4 -28 4 -28 3 2 -1 26
-5 30 -28 31 -26 1 -28 -2 -27 -35z"/>
<path d="M1456 982 c-3 -5 6 -7 19 -4 14 2 25 0 25 -6 0 -6 -10 -12 -22 -14
-34 -5 -29 -33 5 -34 26 -1 28 2 25 30 -2 23 -9 32 -25 34 -11 2 -24 -1 -27
-6z m39 -42 c-3 -5 -13 -10 -21 -10 -8 0 -14 5 -14 10 0 6 9 10 21 10 11 0 17
-4 14 -10z"/>
<path d="M1533 958 c2 -28 6 -33 30 -34 25 -1 27 2 26 35 -1 36 -1 36 -8 6 -9
-42 -38 -45 -45 -6 l-6 31 3 -32z"/>
<path d="M1664 976 c-11 -29 0 -51 26 -51 21 0 25 5 25 30 0 24 -5 31 -23 33
-13 2 -24 -3 -28 -12z m43 -12 c8 -21 -13 -42 -28 -27 -13 13 -5 43 11 43 6 0
13 -7 17 -16z"/>
<path d="M1746 982 c-3 -5 6 -7 19 -4 14 2 25 0 25 -6 0 -6 -10 -12 -22 -14
-34 -5 -29 -33 5 -34 26 -1 28 2 25 30 -2 23 -9 32 -25 34 -11 2 -24 -1 -27
-6z m39 -42 c-3 -5 -13 -10 -21 -10 -8 0 -14 5 -14 10 0 6 9 10 21 10 11 0 17
-4 14 -10z"/>
<path d="M1905 980 c-8 -14 3 -30 21 -30 8 0 14 -5 14 -11 0 -7 -9 -9 -21 -6
-16 4 -19 3 -11 -5 12 -12 42 -4 42 13 0 6 -9 13 -20 16 -11 3 -20 10 -20 15
0 6 9 8 20 5 11 -3 18 -1 14 4 -7 12 -31 11 -39 -1z"/>
<path d="M1977 983 c-4 -3 -7 -17 -7 -30 0 -26 25 -42 42 -25 7 7 4 10 -8 9
-13 -1 -19 5 -19 18 0 13 6 20 17 19 10 -1 15 2 12 7 -6 11 -28 12 -37 2z"/>
<path d="M2041 950 c1 -27 3 -29 6 -10 2 14 11 30 20 37 13 10 13 12 -6 10
-17 -1 -21 -7 -20 -37z"/>
<path d="M2093 955 c0 -22 2 -30 4 -17 2 12 2 30 0 40 -3 9 -5 -1 -4 -23z"/>
<path d="M2176 982 c-3 -5 6 -7 19 -4 14 2 25 0 25 -6 0 -6 -10 -12 -22 -14
-34 -5 -29 -33 5 -34 26 -1 28 2 25 30 -2 23 -9 32 -25 34 -11 2 -24 -1 -27
-6z m39 -42 c-3 -5 -13 -10 -21 -10 -8 0 -14 5 -14 10 0 6 9 10 21 10 11 0 17
-4 14 -10z"/>
<path d="M2296 982 c-3 -5 6 -7 19 -4 14 2 25 0 25 -6 0 -6 -10 -12 -22 -14
-34 -5 -29 -33 5 -34 26 -1 28 2 25 30 -2 23 -9 32 -25 34 -11 2 -24 -1 -27
-6z m39 -42 c-3 -5 -13 -10 -21 -10 -8 0 -14 5 -14 10 0 6 9 10 21 10 11 0 17
-4 14 -10z"/>
<path d="M2411 950 c1 -27 3 -29 6 -10 2 14 11 30 20 37 13 10 13 12 -6 10
-17 -1 -21 -7 -20 -37z"/>
<path d="M2464 976 c-11 -29 0 -51 26 -51 21 0 25 5 25 30 0 24 -5 31 -23 33
-13 2 -24 -3 -28 -12z m43 -12 c8 -21 -13 -42 -28 -27 -13 13 -5 43 11 43 6 0
13 -7 17 -16z"/>
<path d="M2542 952 c1 -37 1 -37 5 -4 3 18 10 32 18 32 8 0 15 -14 18 -32 l4
-33 1 33 c1 20 7 32 16 32 9 0 17 -13 19 -32 l5 -33 -2 35 c-1 34 -2 35 -43
37 l-43 3 2 -38z"/>
<path d="M2654 976 c-15 -38 22 -74 49 -47 7 7 4 8 -10 5 -12 -3 -24 -1 -27 5
-5 7 3 11 19 11 20 0 26 4 23 18 -4 22 -46 29 -54 8z m41 -6 c3 -5 -3 -10 -15
-10 -12 0 -18 5 -15 10 3 6 10 10 15 10 5 0 12 -4 15 -10z"/>
<path d="M2729 975 c6 -13 6 -27 0 -40 -10 -20 -10 -20 5 -1 16 20 16 20 32 0
15 -19 15 -19 5 1 -6 13 -6 27 0 40 10 20 10 20 -5 1 -16 -20 -16 -20 -32 0
-15 19 -15 19 -5 -1z"/>
<path d="M2793 955 c0 -22 2 -30 4 -17 2 12 2 30 0 40 -3 9 -5 -1 -4 -23z"/>
<path d="M2827 983 c-4 -3 -7 -17 -7 -30 0 -26 25 -42 42 -25 7 7 4 10 -8 9
-13 -1 -19 5 -19 18 0 13 6 20 17 19 10 -1 15 2 12 7 -6 11 -28 12 -37 2z"/>
<path d="M2896 982 c-3 -5 6 -7 19 -4 14 2 25 0 25 -6 0 -6 -10 -12 -22 -14
-34 -5 -29 -33 5 -34 26 -1 28 2 25 30 -2 23 -9 32 -25 34 -11 2 -24 -1 -27
-6z m39 -42 c-3 -5 -13 -10 -21 -10 -8 0 -14 5 -14 10 0 6 9 10 21 10 11 0 17
-4 14 -10z"/>
<path d="M2971 951 c1 -36 1 -36 8 -6 8 40 38 46 44 8 4 -28 4 -28 3 2 -1 26
-5 30 -28 31 -26 1 -28 -2 -27 -35z"/>
<path d="M3056 982 c-3 -5 6 -7 19 -4 14 2 25 0 25 -6 0 -6 -10 -12 -22 -14
-34 -5 -29 -33 5 -34 26 -1 28 2 25 30 -2 23 -9 32 -25 34 -11 2 -24 -1 -27
-6z m39 -42 c-3 -5 -13 -10 -21 -10 -8 0 -14 5 -14 10 0 6 9 10 21 10 11 0 17
-4 14 -10z"/>
<path d="M1090 806 c0 -8 -10 -16 -22 -18 -18 -2 -23 -10 -23 -33 0 -25 4 -30
28 -33 26 -3 27 -2 27 47 0 28 -2 51 -5 51 -3 0 -5 -6 -5 -14z m-3 -42 c8 -21
-13 -42 -28 -27 -13 13 -5 43 11 43 6 0 13 -7 17 -16z"/>
<path d="M2160 806 c0 -8 -10 -16 -22 -18 -18 -2 -23 -10 -23 -33 0 -25 4 -30
28 -33 26 -3 27 -2 27 47 0 28 -2 51 -5 51 -3 0 -5 -6 -5 -14z m-3 -42 c8 -21
-13 -42 -28 -27 -13 13 -5 43 11 43 6 0 13 -7 17 -16z"/>
<path d="M2760 806 c0 -8 -10 -16 -22 -18 -18 -2 -23 -10 -23 -33 0 -25 4 -30
28 -33 26 -3 27 -2 27 47 0 28 -2 51 -5 51 -3 0 -5 -6 -5 -14z m-3 -42 c8 -21
-13 -42 -28 -27 -13 13 -5 43 11 43 6 0 13 -7 17 -16z"/>
<path d="M3071 772 c-1 -52 -1 -53 27 -50 23 3 27 8 27 33 0 23 -5 31 -22 33
-12 2 -24 11 -26 20 -3 9 -5 -7 -6 -36z m46 -8 c8 -21 -13 -42 -28 -27 -13 13
-5 43 11 43 6 0 13 -7 17 -16z"/>
<path d="M3153 770 c0 -30 2 -43 4 -27 2 15 2 39 0 55 -2 15 -4 2 -4 -28z"/>
<path d="M3980 806 c0 -8 -10 -16 -22 -18 -18 -2 -23 -10 -23 -33 0 -25 4 -30
28 -33 26 -3 27 -2 27 47 0 28 -2 51 -5 51 -3 0 -5 -6 -5 -14z m-3 -42 c8 -21
-13 -42 -28 -27 -13 13 -5 43 11 43 6 0 13 -7 17 -16z"/>
<path d="M4482 803 c-4 -10 -5 -34 -1 -53 l6 -35 2 33 c0 18 6 32 14 32 8 0 7
4 -3 10 -13 9 -13 11 0 20 9 6 11 10 3 10 -7 0 -16 -8 -21 -17z"/>
<path d="M242 765 c1 -46 1 -47 7 -15 6 32 8 33 15 13 4 -13 11 -23 16 -23 5
0 12 10 16 23 7 20 9 19 15 -13 6 -32 6 -31 7 15 1 45 0 48 -13 31 -8 -10 -17
-24 -20 -30 -4 -8 -6 -8 -10 0 -3 6 -12 20 -20 30 -13 17 -14 14 -13 -31z"/>
<path d="M1246 802 c-3 -5 6 -7 19 -4 29 5 36 -24 8 -31 -17 -4 -17 -5 0 -6 9
0 17 -8 17 -17 0 -12 -7 -15 -26 -11 -16 3 -22 1 -16 -5 6 -6 18 -8 28 -6 15
2 19 12 19 43 0 33 -4 41 -22 43 -11 2 -24 -1 -27 -6z"/>
<path d="M1324 786 c-8 -35 4 -66 26 -66 22 0 34 31 26 66 -4 15 -14 24 -26
24 -12 0 -22 -9 -26 -24z m41 -22 c0 -19 -5 -29 -15 -29 -16 0 -25 28 -16 51
10 25 31 10 31 -22z"/>
<path d="M1394 795 c-8 -19 5 -38 22 -31 17 6 17 2 3 -27 -9 -20 -9 -20 9 2
l19 24 6 -23 c7 -26 32 -22 32 6 0 12 -6 18 -17 18 -21 -2 -21 0 -7 29 9 20 9
20 -9 -2 -19 -23 -19 -23 -25 -2 -6 24 -25 28 -33 6z m26 -10 c0 -8 -4 -15
-10 -15 -5 0 -10 7 -10 15 0 8 5 15 10 15 6 0 10 -7 10 -15z m60 -40 c0 -8 -4
-15 -10 -15 -5 0 -10 7 -10 15 0 8 5 15 10 15 6 0 10 -7 10 -15z"/>
<path d="M2310 791 c0 -13 8 -21 23 -23 30 -4 29 -33 -1 -32 -14 0 -19 -3 -13
-9 17 -17 46 -3 46 23 0 18 -6 26 -22 28 -13 2 -23 7 -23 12 0 5 10 11 23 13
19 4 18 4 -5 6 -21 1 -28 -4 -28 -18z"/>
<path d="M2434 786 c-8 -35 4 -66 26 -66 22 0 34 31 26 66 -4 15 -14 24 -26
24 -12 0 -22 -9 -26 -24z m41 -22 c0 -19 -5 -29 -15 -29 -16 0 -25 28 -16 51
10 25 31 10 31 -22z"/>
<path d="M2514 786 c-8 -35 4 -66 26 -66 22 0 34 31 26 66 -4 15 -14 24 -26
24 -12 0 -22 -9 -26 -24z m41 -22 c0 -19 -5 -29 -15 -29 -16 0 -25 28 -16 51
10 25 31 10 31 -22z"/>
<path d="M2594 786 c-8 -35 4 -66 26 -66 22 0 34 31 26 66 -4 15 -14 24 -26
24 -12 0 -22 -9 -26 -24z m41 -22 c0 -19 -5 -29 -15 -29 -16 0 -25 28 -16 51
10 25 31 10 31 -22z"/>
<path d="M3718 799 c-2 -6 -2 -26 0 -45 3 -24 9 -34 21 -33 10 0 11 2 4 6 -15
5 -18 50 -4 55 5 2 3 8 -4 15 -9 9 -15 9 -17 2z"/>
<path d="M4228 799 c-2 -6 -2 -26 0 -45 3 -24 9 -34 21 -33 10 0 11 2 4 6 -15
5 -18 50 -4 55 5 2 3 8 -4 15 -9 9 -15 9 -17 2z"/>
<path d="M343 758 c2 -28 6 -33 30 -34 25 -1 27 2 26 35 -1 36 -1 36 -8 6 -9
-42 -38 -45 -45 -6 l-6 31 3 -32z"/>
<path d="M421 751 c1 -36 1 -36 8 -6 8 40 38 46 44 8 4 -28 4 -28 3 2 -1 26
-5 30 -28 31 -26 1 -28 -2 -27 -35z"/>
<path d="M582 752 c1 -37 1 -37 5 -4 3 18 10 32 18 32 8 0 15 -14 18 -32 l4
-33 1 33 c3 43 29 43 35 0 l5 -33 -2 35 c-1 34 -2 35 -43 37 l-43 3 2 -38z"/>
<path d="M694 776 c-15 -38 22 -74 49 -47 7 7 4 8 -10 5 -12 -3 -24 -1 -27 5
-5 7 3 11 19 11 20 0 26 4 23 18 -4 22 -46 29 -54 8z m41 -6 c3 -5 -3 -10 -15
-10 -12 0 -18 5 -15 10 3 6 10 10 15 10 5 0 12 -4 15 -10z"/>
<path d="M771 751 c1 -36 1 -36 8 -6 8 40 38 46 44 8 4 -28 4 -28 3 2 -1 26
-5 30 -28 31 -26 1 -28 -2 -27 -35z"/>
<path d="M854 776 c-11 -29 0 -51 26 -51 21 0 25 5 25 30 0 24 -5 31 -23 33
-13 2 -24 -3 -28 -12z m43 -12 c8 -21 -13 -42 -28 -27 -13 13 -5 43 11 43 6 0
13 -7 17 -16z"/>
<path d="M935 780 c-8 -14 3 -30 21 -30 8 0 14 -5 14 -11 0 -7 -9 -9 -21 -6
-16 4 -19 3 -11 -5 12 -12 42 -4 42 13 0 6 -9 13 -20 16 -11 3 -20 10 -20 15
0 6 9 8 20 5 11 -3 18 -1 14 4 -7 12 -31 11 -39 -1z"/>
<path d="M1124 776 c-15 -38 22 -74 49 -47 7 7 4 8 -10 5 -12 -3 -24 -1 -27 5
-5 7 3 11 19 11 20 0 26 4 23 18 -4 22 -46 29 -54 8z m41 -6 c3 -5 -3 -10 -15
-10 -12 0 -18 5 -15 10 3 6 10 10 15 10 5 0 12 -4 15 -10z"/>
<path d="M1540 787 c0 -4 7 -22 16 -39 15 -30 15 -32 -2 -46 -13 -9 -14 -13
-4 -10 16 5 34 37 44 78 5 21 4 21 -8 -4 l-13 -30 -16 30 c-9 16 -16 25 -17
21z"/>
<path d="M1652 752 c1 -37 1 -37 5 -4 3 18 10 32 18 32 8 0 15 -14 18 -32 l4
-33 1 33 c1 20 7 32 16 32 9 0 17 -13 19 -32 l5 -33 -2 35 c-1 34 -2 35 -43
37 l-43 3 2 -38z"/>
<path d="M1764 776 c-15 -38 22 -74 49 -47 7 7 4 8 -10 5 -12 -3 -24 -1 -27 5
-5 7 3 11 19 11 20 0 26 4 23 18 -4 22 -46 29 -54 8z m41 -6 c3 -5 -3 -10 -15
-10 -12 0 -18 5 -15 10 3 6 10 10 15 10 5 0 12 -4 15 -10z"/>
<path d="M1841 751 c1 -36 1 -36 8 -6 8 40 38 46 44 8 4 -28 4 -28 3 2 -1 26
-5 30 -28 31 -26 1 -28 -2 -27 -35z"/>
<path d="M1924 776 c-11 -29 0 -51 26 -51 21 0 25 5 25 30 0 24 -5 31 -23 33
-13 2 -24 -3 -28 -12z m43 -12 c8 -21 -13 -42 -28 -27 -13 13 -5 43 11 43 6 0
13 -7 17 -16z"/>
<path d="M2005 780 c-8 -14 3 -30 21 -30 8 0 14 -5 14 -11 0 -7 -9 -9 -21 -6
-16 4 -19 3 -11 -5 12 -12 42 -4 42 13 0 6 -9 13 -20 16 -11 3 -20 10 -20 15
0 6 9 8 20 5 11 -3 18 -1 14 4 -7 12 -31 11 -39 -1z"/>
<path d="M2194 776 c-15 -38 22 -74 49 -47 7 7 4 8 -10 5 -12 -3 -24 -1 -27 5
-5 7 3 11 19 11 20 0 26 4 23 18 -4 22 -46 29 -54 8z m41 -6 c3 -5 -3 -10 -15
-10 -12 0 -18 5 -15 10 3 6 10 10 15 10 5 0 12 -4 15 -10z"/>
<path d="M2794 776 c-15 -38 22 -74 49 -47 7 7 4 8 -10 5 -12 -3 -24 -1 -27 5
-5 7 3 11 19 11 20 0 26 4 23 18 -4 22 -46 29 -54 8z m41 -6 c3 -5 -3 -10 -15
-10 -12 0 -18 5 -15 10 3 6 10 10 15 10 5 0 12 -4 15 -10z"/>
<path d="M2911 738 c1 -29 3 -45 6 -36 2 9 14 18 26 20 17 2 22 10 22 33 0 25
-4 30 -27 33 -28 3 -28 2 -27 -50z m46 26 c8 -21 -13 -42 -28 -27 -13 13 -5
43 11 43 6 0 13 -7 17 -16z"/>
<path d="M2994 776 c-11 -29 0 -51 26 -51 21 0 25 5 25 30 0 24 -5 31 -23 33
-13 2 -24 -3 -28 -12z m43 -12 c8 -21 -13 -42 -28 -27 -13 13 -5 43 11 43 6 0
13 -7 17 -16z"/>
<path d="M3186 782 c-3 -5 6 -7 19 -4 14 2 25 0 25 -6 0 -6 -10 -12 -22 -14
-34 -5 -29 -33 5 -34 26 -1 28 2 25 30 -2 23 -9 32 -25 34 -11 2 -24 -1 -27
-6z m39 -42 c-3 -5 -13 -10 -21 -10 -8 0 -14 5 -14 10 0 6 9 10 21 10 11 0 17
-4 14 -10z"/>
<path d="M3267 783 c-4 -3 -7 -17 -7 -30 0 -26 25 -42 42 -25 7 7 4 10 -8 9
-13 -1 -19 5 -19 18 0 13 6 20 17 19 10 -1 15 2 12 7 -6 11 -28 12 -37 2z"/>
<path d="M3333 755 c0 -22 2 -30 4 -17 2 12 2 30 0 40 -3 9 -5 -1 -4 -23z"/>
<path d="M3364 776 c-11 -29 0 -51 26 -51 21 0 25 5 25 30 0 24 -5 31 -23 33
-13 2 -24 -3 -28 -12z m43 -12 c8 -21 -13 -42 -28 -27 -13 13 -5 43 11 43 6 0
13 -7 17 -16z"/>
<path d="M3441 751 c1 -36 1 -36 8 -6 8 40 38 46 44 8 4 -28 4 -28 3 2 -1 26
-5 30 -28 31 -26 1 -28 -2 -27 -35z"/>
<path d="M3566 782 c-3 -5 6 -7 19 -4 14 2 25 0 25 -6 0 -6 -10 -12 -22 -14
-34 -5 -29 -33 5 -34 26 -1 28 2 25 30 -2 23 -9 32 -25 34 -11 2 -24 -1 -27
-6z m39 -42 c-3 -5 -13 -10 -21 -10 -8 0 -14 5 -14 10 0 6 9 10 21 10 11 0 17
-4 14 -10z"/>
<path d="M3643 758 c2 -28 6 -33 30 -34 25 -1 27 2 26 35 -1 36 -1 36 -8 6 -9
-42 -38 -45 -45 -6 l-6 31 3 -32z"/>
<path d="M3774 776 c-11 -29 0 -51 26 -51 21 0 25 5 25 30 0 24 -5 31 -23 33
-13 2 -24 -3 -28 -12z m43 -12 c8 -21 -13 -42 -28 -27 -13 13 -5 43 11 43 6 0
13 -7 17 -16z"/>
<path d="M3856 782 c-3 -5 6 -7 19 -4 14 2 25 0 25 -6 0 -6 -10 -12 -22 -14
-34 -5 -29 -33 5 -34 26 -1 28 2 25 30 -2 23 -9 32 -25 34 -11 2 -24 -1 -27
-6z m39 -42 c-3 -5 -13 -10 -21 -10 -8 0 -14 5 -14 10 0 6 9 10 21 10 11 0 17
-4 14 -10z"/>
<path d="M4015 780 c-8 -14 3 -30 21 -30 8 0 14 -5 14 -11 0 -7 -9 -9 -21 -6
-16 4 -19 3 -11 -5 12 -12 42 -4 42 13 0 6 -9 13 -20 16 -11 3 -20 10 -20 15
0 6 9 8 20 5 11 -3 18 -1 14 4 -7 12 -31 11 -39 -1z"/>
<path d="M4087 783 c-4 -3 -7 -17 -7 -30 0 -26 25 -42 42 -25 7 7 4 10 -8 9
-13 -1 -19 5 -19 18 0 13 6 20 17 19 10 -1 15 2 12 7 -6 11 -28 12 -37 2z"/>
<path d="M4151 750 c1 -27 3 -29 6 -10 2 14 11 30 20 37 13 10 13 12 -6 10
-17 -1 -21 -7 -20 -37z"/>
<path d="M4203 755 c0 -22 2 -30 4 -17 2 12 2 30 0 40 -3 9 -5 -1 -4 -23z"/>
<path d="M4286 782 c-3 -5 6 -7 19 -4 14 2 25 0 25 -6 0 -6 -10 -12 -22 -14
-34 -5 -29 -33 5 -34 26 -1 28 2 25 30 -2 23 -9 32 -25 34 -11 2 -24 -1 -27
-6z m39 -42 c-3 -5 -13 -10 -21 -10 -8 0 -14 5 -14 10 0 6 9 10 21 10 11 0 17
-4 14 -10z"/>
<path d="M4406 782 c-3 -5 6 -7 19 -4 14 2 25 0 25 -6 0 -6 -10 -12 -22 -14
-34 -5 -29 -33 5 -34 26 -1 28 2 25 30 -2 23 -9 32 -25 34 -11 2 -24 -1 -27
-6z m39 -42 c-3 -5 -13 -10 -21 -10 -8 0 -14 5 -14 10 0 6 9 10 21 10 11 0 17
-4 14 -10z"/>
<path d="M4521 750 c1 -27 3 -29 6 -10 2 14 11 30 20 37 13 10 13 12 -6 10
-17 -1 -21 -7 -20 -37z"/>
<path d="M4574 776 c-11 -29 0 -51 26 -51 21 0 25 5 25 30 0 24 -5 31 -23 33
-13 2 -24 -3 -28 -12z m43 -12 c8 -21 -13 -42 -28 -27 -13 13 -5 43 11 43 6 0
13 -7 17 -16z"/>
<path d="M4652 752 c1 -37 1 -37 5 -4 3 18 10 32 18 32 8 0 15 -14 18 -32 l4
-33 1 33 c1 20 7 32 16 32 9 0 17 -13 19 -32 l5 -33 -2 35 c-1 34 -2 35 -43
37 l-43 3 2 -38z"/>
<path d="M4764 776 c-15 -38 22 -74 49 -47 7 7 4 8 -10 5 -12 -3 -24 -1 -27 5
-5 7 3 11 19 11 20 0 26 4 23 18 -4 22 -46 29 -54 8z m41 -6 c3 -5 -3 -10 -15
-10 -12 0 -18 5 -15 10 3 6 10 10 15 10 5 0 12 -4 15 -10z"/>
<path d="M4839 775 c6 -13 6 -27 0 -40 -10 -20 -10 -20 5 -1 16 20 16 20 32 0
15 -19 15 -19 5 1 -6 13 -6 27 0 40 10 20 10 20 -5 1 -16 -20 -16 -20 -32 0
-15 19 -15 19 -5 -1z"/>
<path d="M4903 755 c0 -22 2 -30 4 -17 2 12 2 30 0 40 -3 9 -5 -1 -4 -23z"/>
<path d="M4937 783 c-4 -3 -7 -17 -7 -30 0 -26 25 -42 42 -25 7 7 4 10 -8 9
-13 -1 -19 5 -19 18 0 13 6 20 17 19 10 -1 15 2 12 7 -6 11 -28 12 -37 2z"/>
<path d="M5006 782 c-3 -5 6 -7 19 -4 14 2 25 0 25 -6 0 -6 -10 -12 -22 -14
-34 -5 -29 -33 5 -34 26 -1 28 2 25 30 -2 23 -9 32 -25 34 -11 2 -24 -1 -27
-6z m39 -42 c-3 -5 -13 -10 -21 -10 -8 0 -14 5 -14 10 0 6 9 10 21 10 11 0 17
-4 14 -10z"/>
<path d="M5081 751 c1 -36 1 -36 8 -6 8 40 38 46 44 8 4 -28 4 -28 3 2 -1 26
-5 30 -28 31 -26 1 -28 -2 -27 -35z"/>
<path d="M5166 782 c-3 -5 6 -7 19 -4 14 2 25 0 25 -6 0 -6 -10 -12 -22 -14
-34 -5 -29 -33 5 -34 26 -1 28 2 25 30 -2 23 -9 32 -25 34 -11 2 -24 -1 -27
-6z m39 -42 c-3 -5 -13 -10 -21 -10 -8 0 -14 5 -14 10 0 6 9 10 21 10 11 0 17
-4 14 -10z"/>
<path d="M2391 724 c0 -11 3 -14 6 -6 3 7 2 16 -1 19 -3 4 -6 -2 -5 -13z"/>
<path d="M1090 606 c0 -8 -10 -16 -22 -18 -18 -2 -23 -10 -23 -33 0 -25 4 -30
28 -33 26 -3 27 -2 27 47 0 28 -2 51 -5 51 -3 0 -5 -6 -5 -14z m-3 -42 c8 -21
-13 -42 -28 -27 -13 13 -5 43 11 43 6 0 13 -7 17 -16z"/>
<path d="M2000 606 c0 -8 -10 -16 -22 -18 -18 -2 -23 -10 -23 -33 0 -25 4 -30
28 -33 26 -3 27 -2 27 47 0 28 -2 51 -5 51 -3 0 -5 -6 -5 -14z m-3 -42 c8 -21
-13 -42 -28 -27 -13 13 -5 43 11 43 6 0 13 -7 17 -16z"/>
<path d="M2600 606 c0 -8 -10 -16 -22 -18 -18 -2 -23 -10 -23 -33 0 -25 4 -30
28 -33 26 -3 27 -2 27 47 0 28 -2 51 -5 51 -3 0 -5 -6 -5 -14z m-3 -42 c8 -21
-13 -42 -28 -27 -13 13 -5 43 11 43 6 0 13 -7 17 -16z"/>
<path d="M2911 572 c-1 -52 -1 -53 27 -50 23 3 27 8 27 33 0 23 -5 31 -22 33
-12 2 -24 11 -26 20 -3 9 -5 -7 -6 -36z m46 -8 c8 -21 -13 -42 -28 -27 -13 13
-5 43 11 43 6 0 13 -7 17 -16z"/>
<path d="M2993 570 c0 -30 2 -43 4 -27 2 15 2 39 0 55 -2 15 -4 2 -4 -28z"/>
<path d="M3820 606 c0 -8 -10 -16 -22 -18 -18 -2 -23 -10 -23 -33 0 -25 4 -30
28 -33 26 -3 27 -2 27 47 0 28 -2 51 -5 51 -3 0 -5 -6 -5 -14z m-3 -42 c8 -21
-13 -42 -28 -27 -13 13 -5 43 11 43 6 0 13 -7 17 -16z"/>
<path d="M4322 603 c-4 -10 -5 -34 -1 -53 l6 -35 2 33 c0 18 6 32 14 32 8 0 7
4 -3 10 -13 9 -13 11 0 20 9 6 11 10 3 10 -7 0 -16 -8 -21 -17z"/>
<path d="M242 565 c1 -46 1 -47 7 -15 6 32 8 33 15 13 4 -13 11 -23 16 -23 5
0 12 10 16 23 7 20 9 19 15 -13 6 -32 6 -31 7 15 1 45 0 48 -13 31 -8 -10 -17
-24 -20 -30 -4 -8 -6 -8 -10 0 -3 6 -12 20 -20 30 -13 17 -14 14 -13 -31z"/>
<path d="M1246 602 c-3 -5 6 -7 19 -4 29 5 36 -24 8 -31 -17 -4 -17 -5 0 -6 9
0 17 -8 17 -17 0 -12 -7 -15 -26 -11 -16 3 -22 1 -16 -5 6 -6 18 -8 28 -6 15
2 19 12 19 43 0 33 -4 41 -22 43 -11 2 -24 -1 -27 -6z"/>
<path d="M1324 586 c-8 -35 4 -66 26 -66 22 0 34 31 26 66 -4 15 -14 24 -26
24 -12 0 -22 -9 -26 -24z m41 -22 c0 -19 -5 -29 -15 -29 -16 0 -25 28 -16 51
10 25 31 10 31 -22z"/>
<path d="M1394 595 c-8 -19 5 -38 22 -31 17 6 17 2 3 -27 -9 -20 -9 -20 9 2
l19 24 6 -23 c7 -26 32 -22 32 6 0 12 -6 18 -17 18 -21 -2 -21 0 -7 29 9 20 9
20 -9 -2 -19 -23 -19 -23 -25 -2 -6 24 -25 28 -33 6z m26 -10 c0 -8 -4 -15
-10 -15 -5 0 -10 7 -10 15 0 8 5 15 10 15 6 0 10 -7 10 -15z m60 -40 c0 -8 -4
-15 -10 -15 -5 0 -10 7 -10 15 0 8 5 15 10 15 6 0 10 -7 10 -15z"/>
<path d="M2150 591 c0 -13 8 -21 23 -23 30 -4 29 -33 -1 -32 -14 0 -19 -3 -13
-9 17 -17 46 -3 46 23 0 18 -6 26 -22 28 -13 2 -23 7 -23 12 0 5 10 11 23 13
19 4 18 4 -5 6 -21 1 -28 -4 -28 -18z"/>
<path d="M2274 586 c-8 -35 4 -66 26 -66 22 0 34 31 26 66 -4 15 -14 24 -26
24 -12 0 -22 -9 -26 -24z m41 -22 c0 -19 -5 -29 -15 -29 -16 0 -25 28 -16 51
10 25 31 10 31 -22z"/>
<path d="M2354 586 c-8 -35 4 -66 26 -66 22 0 34 31 26 66 -4 15 -14 24 -26
24 -12 0 -22 -9 -26 -24z m41 -22 c0 -19 -5 -29 -15 -29 -16 0 -25 28 -16 51
10 25 31 10 31 -22z"/>
<path d="M2434 586 c-8 -35 4 -66 26 -66 22 0 34 31 26 66 -4 15 -14 24 -26
24 -12 0 -22 -9 -26 -24z m41 -22 c0 -19 -5 -29 -15 -29 -16 0 -25 28 -16 51
10 25 31 10 31 -22z"/>
<path d="M3558 599 c-2 -6 -2 -26 0 -45 3 -24 9 -34 21 -33 10 0 11 2 4 6 -15
5 -18 50 -4 55 5 2 3 8 -4 15 -9 9 -15 9 -17 2z"/>
<path d="M4068 599 c-2 -6 -2 -26 0 -45 3 -24 9 -34 21 -33 10 0 11 2 4 6 -15
5 -18 50 -4 55 5 2 3 8 -4 15 -9 9 -15 9 -17 2z"/>
<path d="M343 558 c2 -28 6 -33 30 -34 25 -1 27 2 26 35 -1 36 -1 36 -8 6 -9
-42 -38 -45 -45 -6 l-6 31 3 -32z"/>
<path d="M421 551 c1 -36 1 -36 8 -6 8 40 38 46 44 8 4 -28 4 -28 3 2 -1 26
-5 30 -28 31 -26 1 -28 -2 -27 -35z"/>
<path d="M582 552 c1 -37 1 -37 5 -4 3 18 10 32 18 32 8 0 15 -14 18 -32 l4
-33 1 33 c1 20 7 32 16 32 9 0 17 -13 19 -32 l5 -33 -2 35 c-1 34 -2 35 -43
37 l-43 3 2 -38z"/>
<path d="M694 576 c-15 -38 22 -74 49 -47 7 7 4 8 -10 5 -12 -3 -24 -1 -27 5
-5 7 3 11 19 11 20 0 26 4 23 18 -4 22 -46 29 -54 8z m41 -6 c3 -5 -3 -10 -15
-10 -12 0 -18 5 -15 10 3 6 10 10 15 10 5 0 12 -4 15 -10z"/>
<path d="M771 551 c1 -36 1 -36 8 -6 8 40 38 46 44 8 4 -28 4 -28 3 2 -1 26
-5 30 -28 31 -26 1 -28 -2 -27 -35z"/>
<path d="M854 576 c-11 -29 0 -51 26 -51 21 0 25 5 25 30 0 24 -5 31 -23 33
-13 2 -24 -3 -28 -12z m43 -12 c8 -21 -13 -42 -28 -27 -13 13 -5 43 11 43 6 0
13 -7 17 -16z"/>
<path d="M935 580 c-8 -14 3 -30 21 -30 8 0 14 -5 14 -11 0 -7 -9 -9 -21 -6
-16 4 -19 3 -11 -5 12 -12 42 -4 42 13 0 6 -9 13 -20 16 -11 3 -20 10 -20 15
0 6 9 8 20 5 11 -3 18 -1 14 4 -7 12 -31 11 -39 -1z"/>
<path d="M1124 576 c-15 -38 22 -74 49 -47 7 7 4 8 -10 5 -12 -3 -24 -1 -27 5
-5 7 3 11 19 11 20 0 26 4 23 18 -4 22 -46 29 -54 8z m41 -6 c3 -5 -3 -10 -15
-10 -12 0 -18 5 -15 10 3 6 10 10 15 10 5 0 12 -4 15 -10z"/>
<path d="M1540 587 c0 -4 7 -22 16 -39 15 -30 15 -32 -2 -46 -13 -9 -14 -13
-4 -10 16 5 34 37 44 78 5 21 4 21 -8 -4 l-13 -30 -16 30 c-9 16 -16 25 -17
21z"/>
<path d="M1652 552 c1 -37 1 -37 5 -4 3 18 10 32 18 32 8 0 15 -14 18 -32 l4
-33 1 33 c1 20 7 32 16 32 9 0 17 -13 19 -32 l5 -33 -2 35 c-1 34 -2 35 -43
37 l-43 3 2 -38z"/>
<path d="M1766 582 c-3 -5 6 -7 19 -4 14 2 25 0 25 -6 0 -6 -10 -12 -22 -14
-34 -5 -29 -33 5 -34 26 -1 28 2 25 30 -2 23 -9 32 -25 34 -11 2 -24 -1 -27
-6z m39 -42 c-3 -5 -13 -10 -21 -10 -8 0 -14 5 -14 10 0 6 9 10 21 10 11 0 17
-4 14 -10z"/>
<path d="M1845 580 c-8 -14 3 -30 21 -30 8 0 14 -5 14 -11 0 -7 -9 -9 -21 -6
-16 4 -19 3 -11 -5 12 -12 42 -4 42 13 0 6 -9 13 -20 16 -11 3 -20 10 -20 15
0 6 9 8 20 5 11 -3 18 -1 14 4 -7 12 -31 11 -39 -1z"/>
<path d="M2034 576 c-15 -38 22 -74 49 -47 7 7 4 8 -10 5 -12 -3 -24 -1 -27 5
-5 7 3 11 19 11 20 0 26 4 23 18 -4 22 -46 29 -54 8z m41 -6 c3 -5 -3 -10 -15
-10 -12 0 -18 5 -15 10 3 6 10 10 15 10 5 0 12 -4 15 -10z"/>
<path d="M2634 576 c-15 -38 22 -74 49 -47 7 7 4 8 -10 5 -12 -3 -24 -1 -27 5
-5 7 3 11 19 11 20 0 26 4 23 18 -4 22 -46 29 -54 8z m41 -6 c3 -5 -3 -10 -15
-10 -12 0 -18 5 -15 10 3 6 10 10 15 10 5 0 12 -4 15 -10z"/>
<path d="M2751 538 c1 -29 3 -45 6 -36 2 9 14 18 26 20 17 2 22 10 22 33 0 25
-4 30 -27 33 -28 3 -28 2 -27 -50z m46 26 c8 -21 -13 -42 -28 -27 -13 13 -5
43 11 43 6 0 13 -7 17 -16z"/>
<path d="M2834 576 c-11 -29 0 -51 26 -51 21 0 25 5 25 30 0 24 -5 31 -23 33
-13 2 -24 -3 -28 -12z m43 -12 c8 -21 -13 -42 -28 -27 -13 13 -5 43 11 43 6 0
13 -7 17 -16z"/>
<path d="M3026 582 c-3 -5 6 -7 19 -4 14 2 25 0 25 -6 0 -6 -10 -12 -22 -14
-34 -5 -29 -33 5 -34 26 -1 28 2 25 30 -2 23 -9 32 -25 34 -11 2 -24 -1 -27
-6z m39 -42 c-3 -5 -13 -10 -21 -10 -8 0 -14 5 -14 10 0 6 9 10 21 10 11 0 17
-4 14 -10z"/>
<path d="M3107 583 c-4 -3 -7 -17 -7 -30 0 -26 25 -42 42 -25 7 7 4 10 -8 9
-13 -1 -19 5 -19 18 0 13 6 20 17 19 10 -1 15 2 12 7 -6 11 -28 12 -37 2z"/>
<path d="M3173 555 c0 -22 2 -30 4 -17 2 12 2 30 0 40 -3 9 -5 -1 -4 -23z"/>
<path d="M3204 576 c-11 -29 0 -51 26 -51 21 0 25 5 25 30 0 24 -5 31 -23 33
-13 2 -24 -3 -28 -12z m43 -12 c8 -21 -13 -42 -28 -27 -13 13 -5 43 11 43 6 0
13 -7 17 -16z"/>
<path d="M3281 551 c1 -36 1 -36 8 -6 8 40 38 46 44 8 4 -28 4 -28 3 2 -1 26
-5 30 -28 31 -26 1 -28 -2 -27 -35z"/>
<path d="M3406 582 c-3 -5 6 -7 19 -4 14 2 25 0 25 -6 0 -6 -10 -12 -22 -14
-34 -5 -29 -33 5 -34 26 -1 28 2 25 30 -2 23 -9 32 -25 34 -11 2 -24 -1 -27
-6z m39 -42 c-3 -5 -13 -10 -21 -10 -8 0 -14 5 -14 10 0 6 9 10 21 10 11 0 17
-4 14 -10z"/>
<path d="M3483 558 c2 -28 6 -33 30 -34 25 -1 27 2 26 35 -1 36 -1 36 -8 6 -9
-42 -38 -45 -45 -6 l-6 31 3 -32z"/>
<path d="M3614 576 c-11 -29 0 -51 26 -51 21 0 25 5 25 30 0 24 -5 31 -23 33
-13 2 -24 -3 -28 -12z m43 -12 c8 -21 -13 -42 -28 -27 -13 13 -5 43 11 43 6 0
13 -7 17 -16z"/>
<path d="M3696 582 c-3 -5 6 -7 19 -4 14 2 25 0 25 -6 0 -6 -10 -12 -22 -14
-34 -5 -29 -33 5 -34 26 -1 28 2 25 30 -2 23 -9 32 -25 34 -11 2 -24 -1 -27
-6z m39 -42 c-3 -5 -13 -10 -21 -10 -8 0 -14 5 -14 10 0 6 9 10 21 10 11 0 17
-4 14 -10z"/>
<path d="M3855 580 c-8 -14 3 -30 21 -30 8 0 14 -5 14 -11 0 -7 -9 -9 -21 -6
-16 4 -19 3 -11 -5 12 -12 42 -4 42 13 0 6 -9 13 -20 16 -11 3 -20 10 -20 15
0 6 9 8 20 5 11 -3 18 -1 14 4 -7 12 -31 11 -39 -1z"/>
<path d="M3927 583 c-4 -3 -7 -17 -7 -30 0 -26 25 -42 42 -25 7 7 4 10 -8 9
-13 -1 -19 5 -19 18 0 13 6 20 17 19 10 -1 15 2 12 7 -6 11 -28 12 -37 2z"/>
<path d="M3991 550 c1 -27 3 -29 6 -10 2 14 11 30 20 37 13 10 13 12 -6 10
-17 -1 -21 -7 -20 -37z"/>
<path d="M4043 555 c0 -22 2 -30 4 -17 2 12 2 30 0 40 -3 9 -5 -1 -4 -23z"/>
<path d="M4126 582 c-3 -5 6 -7 19 -4 14 2 25 0 25 -6 0 -6 -10 -12 -22 -14
-34 -5 -29 -33 5 -34 26 -1 28 2 25 30 -2 23 -9 32 -25 34 -11 2 -24 -1 -27
-6z m39 -42 c-3 -5 -13 -10 -21 -10 -8 0 -14 5 -14 10 0 6 9 10 21 10 11 0 17
-4 14 -10z"/>
<path d="M4246 582 c-3 -5 6 -7 19 -4 14 2 25 0 25 -6 0 -6 -10 -12 -22 -14
-34 -5 -29 -33 5 -34 26 -1 28 2 25 30 -2 23 -9 32 -25 34 -11 2 -24 -1 -27
-6z m39 -42 c-3 -5 -13 -10 -21 -10 -8 0 -14 5 -14 10 0 6 9 10 21 10 11 0 17
-4 14 -10z"/>
<path d="M4361 550 c1 -27 3 -29 6 -10 2 14 11 30 20 37 13 10 13 12 -6 10
-17 -1 -21 -7 -20 -37z"/>
<path d="M4414 576 c-11 -29 0 -51 26 -51 21 0 25 5 25 30 0 24 -5 31 -23 33
-13 2 -24 -3 -28 -12z m43 -12 c8 -21 -13 -42 -28 -27 -13 13 -5 43 11 43 6 0
13 -7 17 -16z"/>
<path d="M4492 552 c1 -37 1 -37 5 -4 3 18 10 32 18 32 8 0 15 -14 18 -32 l4
-33 1 33 c1 20 7 32 16 32 9 0 17 -13 19 -32 l5 -33 -2 35 c-1 34 -2 35 -43
37 l-43 3 2 -38z"/>
<path d="M4604 576 c-15 -38 22 -74 49 -47 7 7 4 8 -10 5 -12 -3 -24 -1 -27 5
-5 7 3 11 19 11 20 0 26 4 23 18 -4 22 -46 29 -54 8z m41 -6 c3 -5 -3 -10 -15
-10 -12 0 -18 5 -15 10 3 6 10 10 15 10 5 0 12 -4 15 -10z"/>
<path d="M4679 575 c6 -13 6 -27 0 -40 -10 -20 -10 -20 5 -1 16 20 16 20 32 0
15 -19 15 -19 5 1 -6 13 -6 27 0 40 10 20 10 20 -5 1 -16 -20 -16 -20 -32 0
-15 19 -15 19 -5 -1z"/>
<path d="M4743 555 c0 -22 2 -30 4 -17 2 12 2 30 0 40 -3 9 -5 -1 -4 -23z"/>
<path d="M4777 583 c-4 -3 -7 -17 -7 -30 0 -26 25 -42 42 -25 7 7 4 10 -8 9
-13 -1 -19 5 -19 18 0 13 6 20 17 19 10 -1 15 2 12 7 -6 11 -28 12 -37 2z"/>
<path d="M4846 582 c-3 -5 6 -7 19 -4 14 2 25 0 25 -6 0 -6 -10 -12 -22 -14
-34 -5 -29 -33 5 -34 26 -1 28 2 25 30 -2 23 -9 32 -25 34 -11 2 -24 -1 -27
-6z m39 -42 c-3 -5 -13 -10 -21 -10 -8 0 -14 5 -14 10 0 6 9 10 21 10 11 0 17
-4 14 -10z"/>
<path d="M4921 551 c1 -36 1 -36 8 -6 8 40 38 46 44 8 4 -28 4 -28 3 2 -1 26
-5 30 -28 31 -26 1 -28 -2 -27 -35z"/>
<path d="M5006 582 c-3 -5 6 -7 19 -4 14 2 25 0 25 -6 0 -6 -10 -12 -22 -14
-34 -5 -29 -33 5 -34 26 -1 28 2 25 30 -2 23 -9 32 -25 34 -11 2 -24 -1 -27
-6z m39 -42 c-3 -5 -13 -10 -21 -10 -8 0 -14 5 -14 10 0 6 9 10 21 10 11 0 17
-4 14 -10z"/>
<path d="M2231 524 c0 -11 3 -14 6 -6 3 7 2 16 -1 19 -3 4 -6 -2 -5 -13z"/>
<path d="M40 365 l0 -55 55 0 55 0 0 55 0 55 -55 0 -55 0 0 -55z"/>
<path d="M630 406 c0 -8 -10 -16 -22 -18 -18 -2 -23 -10 -23 -33 0 -25 4 -30
28 -33 26 -3 27 -2 27 47 0 28 -2 51 -5 51 -3 0 -5 -6 -5 -14z m-3 -42 c8 -21
-13 -42 -28 -27 -13 13 -5 43 11 43 6 0 13 -7 17 -16z"/>
<path d="M1720 406 c0 -8 -10 -16 -22 -18 -18 -2 -23 -10 -23 -33 0 -25 4 -30
28 -33 26 -3 27 -2 27 47 0 28 -2 51 -5 51 -3 0 -5 -6 -5 -14z m-3 -42 c8 -21
-13 -42 -28 -27 -13 13 -5 43 11 43 6 0 13 -7 17 -16z"/>
<path d="M2230 406 c0 -8 -10 -16 -22 -18 -18 -2 -23 -10 -23 -33 0 -25 4 -30
28 -33 26 -3 27 -2 27 47 0 28 -2 51 -5 51 -3 0 -5 -6 -5 -14z m-3 -42 c8 -21
-13 -42 -28 -27 -13 13 -5 43 11 43 6 0 13 -7 17 -16z"/>
<path d="M2541 372 c-1 -52 -1 -53 27 -50 23 3 27 8 27 33 0 23 -5 31 -22 33
-12 2 -24 11 -26 20 -3 9 -5 -7 -6 -36z m46 -8 c8 -21 -13 -42 -28 -27 -13 13
-5 43 11 43 6 0 13 -7 17 -16z"/>
<path d="M2623 370 c0 -30 2 -43 4 -27 2 15 2 39 0 55 -2 15 -4 2 -4 -28z"/>
<path d="M3450 406 c0 -8 -10 -16 -22 -18 -18 -2 -23 -10 -23 -33 0 -25 4 -30
28 -33 26 -3 27 -2 27 47 0 28 -2 51 -5 51 -3 0 -5 -6 -5 -14z m-3 -42 c8 -21
-13 -42 -28 -27 -13 13 -5 43 11 43 6 0 13 -7 17 -16z"/>
<path d="M3952 403 c-4 -10 -5 -34 -1 -53 l6 -35 2 33 c0 18 6 32 14 32 8 0 7
4 -3 10 -13 9 -13 11 0 20 9 6 11 10 3 10 -7 0 -16 -8 -21 -17z"/>
<path d="M242 365 c1 -46 1 -47 7 -15 6 32 8 33 15 13 4 -13 11 -23 16 -23 5
0 12 10 16 23 7 20 9 19 15 -13 6 -32 6 -31 7 15 1 45 0 48 -13 31 -8 -10 -17
-24 -20 -30 -4 -8 -6 -8 -10 0 -3 6 -12 20 -20 30 -13 17 -14 14 -13 -31z"/>
<path d="M786 402 c-3 -5 6 -7 19 -4 29 5 36 -24 8 -31 -17 -4 -17 -5 0 -6 9
0 17 -8 17 -17 0 -12 -7 -15 -26 -11 -16 3 -22 1 -16 -5 6 -6 18 -8 28 -6 15
2 19 12 19 43 0 33 -4 41 -22 43 -11 2 -24 -1 -27 -6z"/>
<path d="M864 386 c-8 -35 4 -66 26 -66 22 0 34 31 26 66 -4 15 -14 24 -26 24
-12 0 -22 -9 -26 -24z m41 -22 c0 -19 -5 -29 -15 -29 -16 0 -25 28 -16 51 10
25 31 10 31 -22z"/>
<path d="M934 395 c-8 -19 5 -38 22 -31 17 6 17 2 3 -27 -9 -20 -9 -20 9 2
l19 24 6 -23 c7 -26 32 -22 32 6 0 12 -6 18 -17 18 -21 -2 -21 0 -7 29 9 20 9
20 -9 -2 -19 -23 -19 -23 -25 -2 -6 24 -25 28 -33 6z m26 -10 c0 -8 -4 -15
-10 -15 -5 0 -10 7 -10 15 0 8 5 15 10 15 6 0 10 -7 10 -15z m60 -40 c0 -8 -4
-15 -10 -15 -5 0 -10 7 -10 15 0 8 5 15 10 15 6 0 10 -7 10 -15z"/>
<path d="M1892 403 l28 -4 -20 -40 c-11 -21 -18 -39 -15 -39 5 0 45 75 45 85
0 3 -15 4 -32 4 -31 -2 -31 -2 -6 -6z"/>
<path d="M1954 386 c-8 -35 4 -66 26 -66 22 0 34 31 26 66 -4 15 -14 24 -26
24 -12 0 -22 -9 -26 -24z m41 -22 c0 -19 -5 -29 -15 -29 -16 0 -25 28 -16 51
10 25 31 10 31 -22z"/>
<path d="M2024 395 c-8 -19 5 -38 22 -31 17 6 17 2 3 -27 -9 -20 -9 -20 9 2
l19 24 6 -23 c7 -26 32 -22 32 6 0 12 -6 18 -17 18 -21 -2 -21 0 -7 29 9 20 9
20 -9 -2 -19 -23 -19 -23 -25 -2 -6 24 -25 28 -33 6z m26 -10 c0 -8 -4 -15
-10 -15 -5 0 -10 7 -10 15 0 8 5 15 10 15 6 0 10 -7 10 -15z m60 -40 c0 -8 -4
-15 -10 -15 -5 0 -10 7 -10 15 0 8 5 15 10 15 6 0 10 -7 10 -15z"/>
<path d="M3188 399 c-2 -6 -2 -26 0 -45 3 -24 9 -34 21 -33 10 0 11 2 4 6 -15
5 -18 50 -4 55 5 2 3 8 -4 15 -9 9 -15 9 -17 2z"/>
<path d="M3698 399 c-2 -6 -2 -26 0 -45 3 -24 9 -34 21 -33 10 0 11 2 4 6 -15
5 -18 50 -4 55 5 2 3 8 -4 15 -9 9 -15 9 -17 2z"/>
<path d="M343 358 c2 -28 6 -33 30 -34 25 -1 27 2 26 35 -1 36 -1 36 -8 6 -9
-42 -38 -45 -45 -6 l-6 31 3 -32z"/>
<path d="M421 351 c1 -36 1 -36 8 -6 8 40 38 46 44 8 4 -28 4 -28 3 2 -1 26
-5 30 -28 31 -26 1 -28 -2 -27 -35z"/>
<path d="M664 376 c-15 -38 22 -74 49 -47 7 7 4 8 -10 5 -12 -3 -24 -1 -27 5
-5 7 3 11 19 11 20 0 26 4 23 18 -4 22 -46 29 -54 8z m41 -6 c3 -5 -3 -10 -15
-10 -12 0 -18 5 -15 10 3 6 10 10 15 10 5 0 12 -4 15 -10z"/>
<path d="M1096 382 c-3 -5 6 -7 19 -4 14 2 25 0 25 -6 0 -6 -10 -12 -22 -14
-34 -5 -29 -33 5 -34 26 -1 28 2 25 30 -2 23 -9 32 -25 34 -11 2 -24 -1 -27
-6z m39 -42 c-3 -5 -13 -10 -21 -10 -8 0 -14 5 -14 10 0 6 9 10 21 10 11 0 17
-4 14 -10z"/>
<path d="M1212 352 c1 -37 1 -37 5 -4 3 18 10 32 18 32 8 0 15 -14 18 -32 l4
-33 1 33 c1 20 7 32 16 32 9 0 17 -13 19 -32 l5 -33 -2 35 c-1 34 -2 35 -43
37 l-43 3 2 -38z"/>
<path d="M1324 376 c-15 -38 22 -74 49 -47 7 7 4 8 -10 5 -12 -3 -24 -1 -27 5
-5 7 3 11 19 11 20 0 26 4 23 18 -4 22 -46 29 -54 8z m41 -6 c3 -5 -3 -10 -15
-10 -12 0 -18 5 -15 10 3 6 10 10 15 10 5 0 12 -4 15 -10z"/>
<path d="M1401 351 c1 -36 1 -36 8 -6 8 40 38 46 44 8 4 -28 4 -28 3 2 -1 26
-5 30 -28 31 -26 1 -28 -2 -27 -35z"/>
<path d="M1484 376 c-11 -29 0 -51 26 -51 21 0 25 5 25 30 0 24 -5 31 -23 33
-13 2 -24 -3 -28 -12z m43 -12 c8 -21 -13 -42 -28 -27 -13 13 -5 43 11 43 6 0
13 -7 17 -16z"/>
<path d="M1565 380 c-8 -14 3 -30 21 -30 8 0 14 -5 14 -11 0 -7 -9 -9 -21 -6
-16 4 -19 3 -11 -5 12 -12 42 -4 42 13 0 6 -9 13 -20 16 -11 3 -20 10 -20 15
0 6 9 8 20 5 11 -3 18 -1 14 4 -7 12 -31 11 -39 -1z"/>
<path d="M1754 376 c-15 -38 22 -74 49 -47 7 7 4 8 -10 5 -12 -3 -24 -1 -27 5
-5 7 3 11 19 11 20 0 26 4 23 18 -4 22 -46 29 -54 8z m41 -6 c3 -5 -3 -10 -15
-10 -12 0 -18 5 -15 10 3 6 10 10 15 10 5 0 12 -4 15 -10z"/>
<path d="M2264 376 c-15 -38 22 -74 49 -47 7 7 4 8 -10 5 -12 -3 -24 -1 -27 5
-5 7 3 11 19 11 20 0 26 4 23 18 -4 22 -46 29 -54 8z m41 -6 c3 -5 -3 -10 -15
-10 -12 0 -18 5 -15 10 3 6 10 10 15 10 5 0 12 -4 15 -10z"/>
<path d="M2381 338 c1 -29 3 -45 6 -36 2 9 14 18 26 20 17 2 22 10 22 33 0 25
-4 30 -27 33 -28 3 -28 2 -27 -50z m46 26 c8 -21 -13 -42 -28 -27 -13 13 -5
43 11 43 6 0 13 -7 17 -16z"/>
<path d="M2464 376 c-11 -29 0 -51 26 -51 21 0 25 5 25 30 0 24 -5 31 -23 33
-13 2 -24 -3 -28 -12z m43 -12 c8 -21 -13 -42 -28 -27 -13 13 -5 43 11 43 6 0
13 -7 17 -16z"/>
<path d="M2656 382 c-3 -5 6 -7 19 -4 14 2 25 0 25 -6 0 -6 -10 -12 -22 -14
-34 -5 -29 -33 5 -34 26 -1 28 2 25 30 -2 23 -9 32 -25 34 -11 2 -24 -1 -27
-6z m39 -42 c-3 -5 -13 -10 -21 -10 -8 0 -14 5 -14 10 0 6 9 10 21 10 11 0 17
-4 14 -10z"/>
<path d="M2737 383 c-4 -3 -7 -17 -7 -30 0 -26 25 -42 42 -25 7 7 4 10 -8 9
-13 -1 -19 5 -19 18 0 13 6 20 17 19 10 -1 15 2 12 7 -6 11 -28 12 -37 2z"/>
<path d="M2803 355 c0 -22 2 -30 4 -17 2 12 2 30 0 40 -3 9 -5 -1 -4 -23z"/>
<path d="M2834 376 c-11 -29 0 -51 26 -51 21 0 25 5 25 30 0 24 -5 31 -23 33
-13 2 -24 -3 -28 -12z m43 -12 c8 -21 -13 -42 -28 -27 -13 13 -5 43 11 43 6 0
13 -7 17 -16z"/>
<path d="M2911 351 c1 -36 1 -36 8 -6 8 40 38 46 44 8 4 -28 4 -28 3 2 -1 26
-5 30 -28 31 -26 1 -28 -2 -27 -35z"/>
<path d="M3036 382 c-3 -5 6 -7 19 -4 14 2 25 0 25 -6 0 -6 -10 -12 -22 -14
-34 -5 -29 -33 5 -34 26 -1 28 2 25 30 -2 23 -9 32 -25 34 -11 2 -24 -1 -27
-6z m39 -42 c-3 -5 -13 -10 -21 -10 -8 0 -14 5 -14 10 0 6 9 10 21 10 11 0 17
-4 14 -10z"/>
<path d="M3113 358 c2 -28 6 -33 30 -34 25 -1 27 2 26 35 -1 36 -1 36 -8 6 -9
-42 -38 -45 -45 -6 l-6 31 3 -32z"/>
<path d="M3244 376 c-11 -29 0 -51 26 -51 21 0 25 5 25 30 0 24 -5 31 -23 33
-13 2 -24 -3 -28 -12z m43 -12 c8 -21 -13 -42 -28 -27 -13 13 -5 43 11 43 6 0
13 -7 17 -16z"/>
<path d="M3326 382 c-3 -5 6 -7 19 -4 14 2 25 0 25 -6 0 -6 -10 -12 -22 -14
-34 -5 -29 -33 5 -34 26 -1 28 2 25 30 -2 23 -9 32 -25 34 -11 2 -24 -1 -27
-6z m39 -42 c-3 -5 -13 -10 -21 -10 -8 0 -14 5 -14 10 0 6 9 10 21 10 11 0 17
-4 14 -10z"/>
<path d="M3485 380 c-8 -14 3 -30 21 -30 8 0 14 -5 14 -11 0 -7 -9 -9 -21 -6
-16 4 -19 3 -11 -5 12 -12 42 -4 42 13 0 6 -9 13 -20 16 -11 3 -20 10 -20 15
0 6 9 8 20 5 11 -3 18 -1 14 4 -7 12 -31 11 -39 -1z"/>
<path d="M3557 383 c-4 -3 -7 -17 -7 -30 0 -26 25 -42 42 -25 7 7 4 10 -8 9
-13 -1 -19 5 -19 18 0 13 6 20 17 19 10 -1 15 2 12 7 -6 11 -28 12 -37 2z"/>
<path d="M3621 350 c1 -27 3 -29 6 -10 2 14 11 30 20 37 13 10 13 12 -6 10
-17 -1 -21 -7 -20 -37z"/>
<path d="M3673 355 c0 -22 2 -30 4 -17 2 12 2 30 0 40 -3 9 -5 -1 -4 -23z"/>
<path d="M3756 382 c-3 -5 6 -7 19 -4 14 2 25 0 25 -6 0 -6 -10 -12 -22 -14
-34 -5 -29 -33 5 -34 26 -1 28 2 25 30 -2 23 -9 32 -25 34 -11 2 -24 -1 -27
-6z m39 -42 c-3 -5 -13 -10 -21 -10 -8 0 -14 5 -14 10 0 6 9 10 21 10 11 0 17
-4 14 -10z"/>
<path d="M3876 382 c-3 -5 6 -7 19 -4 14 2 25 0 25 -6 0 -6 -10 -12 -22 -14
-34 -5 -29 -33 5 -34 26 -1 28 2 25 30 -2 23 -9 32 -25 34 -11 2 -24 -1 -27
-6z m39 -42 c-3 -5 -13 -10 -21 -10 -8 0 -14 5 -14 10 0 6 9 10 21 10 11 0 17
-4 14 -10z"/>
<path d="M3991 350 c1 -27 3 -29 6 -10 2 14 11 30 20 37 13 10 13 12 -6 10
-17 -1 -21 -7 -20 -37z"/>
<path d="M4044 376 c-11 -29 0 -51 26 -51 21 0 25 5 25 30 0 24 -5 31 -23 33
-13 2 -24 -3 -28 -12z m43 -12 c8 -21 -13 -42 -28 -27 -13 13 -5 43 11 43 6 0
13 -7 17 -16z"/>
<path d="M4122 352 c1 -37 1 -37 5 -4 3 18 10 32 18 32 8 0 15 -14 18 -32 l4
-33 1 33 c1 20 7 32 16 32 9 0 17 -13 19 -32 l5 -33 -2 35 c-1 34 -2 35 -43
37 l-43 3 2 -38z"/>
<path d="M4234 376 c-15 -38 22 -74 49 -47 7 7 4 8 -10 5 -12 -3 -24 -1 -27 5
-5 7 3 11 19 11 20 0 26 4 23 18 -4 22 -46 29 -54 8z m41 -6 c3 -5 -3 -10 -15
-10 -12 0 -18 5 -15 10 3 6 10 10 15 10 5 0 12 -4 15 -10z"/>
<path d="M4309 375 c6 -13 6 -27 0 -40 -10 -20 -10 -20 5 -1 16 20 16 20 32 0
15 -19 15 -19 5 1 -6 13 -6 27 0 40 10 20 10 20 -5 1 -16 -20 -16 -20 -32 0
-15 19 -15 19 -5 -1z"/>
<path d="M4373 355 c0 -22 2 -30 4 -17 2 12 2 30 0 40 -3 9 -5 -1 -4 -23z"/>
<path d="M4407 383 c-4 -3 -7 -17 -7 -30 0 -26 25 -42 42 -25 7 7 4 10 -8 9
-13 -1 -19 5 -19 18 0 13 6 20 17 19 10 -1 15 2 12 7 -6 11 -28 12 -37 2z"/>
<path d="M4476 382 c-3 -5 6 -7 19 -4 14 2 25 0 25 -6 0 -6 -10 -12 -22 -14
-34 -5 -29 -33 5 -34 26 -1 28 2 25 30 -2 23 -9 32 -25 34 -11 2 -24 -1 -27
-6z m39 -42 c-3 -5 -13 -10 -21 -10 -8 0 -14 5 -14 10 0 6 9 10 21 10 11 0 17
-4 14 -10z"/>
<path d="M4551 351 c1 -36 1 -36 8 -6 8 40 38 46 44 8 4 -28 4 -28 3 2 -1 26
-5 30 -28 31 -26 1 -28 -2 -27 -35z"/>
<path d="M4636 382 c-3 -5 6 -7 19 -4 14 2 25 0 25 -6 0 -6 -10 -12 -22 -14
-34 -5 -29 -33 5 -34 26 -1 28 2 25 30 -2 23 -9 32 -25 34 -11 2 -24 -1 -27
-6z m39 -42 c-3 -5 -13 -10 -21 -10 -8 0 -14 5 -14 10 0 6 9 10 21 10 11 0 17
-4 14 -10z"/>
<path d="M40 165 l0 -55 55 0 55 0 0 55 0 55 -55 0 -55 0 0 -55z"/>
<path d="M1340 206 c0 -8 -10 -16 -22 -18 -18 -2 -23 -10 -23 -33 0 -25 4 -30
28 -33 26 -3 27 -2 27 47 0 28 -2 51 -5 51 -3 0 -5 -6 -5 -14z m-3 -42 c8 -21
-13 -42 -28 -27 -13 13 -5 43 11 43 6 0 13 -7 17 -16z"/>
<path d="M1651 172 c-1 -52 -1 -53 27 -50 23 3 27 8 27 33 0 23 -5 31 -22 33
-12 2 -24 11 -26 20 -3 9 -5 -7 -6 -36z m46 -8 c8 -21 -13 -42 -28 -27 -13 13
-5 43 11 43 6 0 13 -7 17 -16z"/>
<path d="M1733 170 c0 -30 2 -43 4 -28 2 16 2 40 0 56 -2 15 -4 2 -4 -28z"/>
<path d="M2560 206 c0 -8 -10 -16 -22 -18 -18 -2 -23 -10 -23 -33 0 -25 4 -30
28 -33 26 -3 27 -2 27 47 0 28 -2 51 -5 51 -3 0 -5 -6 -5 -14z m-3 -42 c8 -21
-13 -42 -28 -27 -13 13 -5 43 11 43 6 0 13 -7 17 -16z"/>
<path d="M3062 203 c-4 -10 -5 -34 -1 -53 l6 -35 2 33 c0 18 6 32 14 32 8 0 7
4 -3 10 -13 9 -13 11 0 20 9 6 11 10 3 10 -7 0 -16 -8 -21 -17z"/>
<path d="M242 165 c1 -46 1 -47 7 -15 6 32 8 33 15 13 4 -13 11 -23 16 -23 5
0 12 10 16 23 7 20 9 19 15 -13 6 -32 6 -31 7 15 1 45 0 48 -13 31 -8 -10 -17
-24 -20 -30 -4 -8 -6 -8 -10 0 -3 6 -12 20 -20 30 -13 17 -14 14 -13 -31z"/>
<path d="M602 203 l28 -4 -20 -40 c-11 -21 -18 -39 -15 -39 5 0 45 75 45 85 0
3 -15 4 -32 4 -31 -2 -31 -2 -6 -6z"/>
<path d="M664 186 c-8 -35 4 -66 26 -66 22 0 34 31 26 66 -4 15 -14 24 -26 24
-12 0 -22 -9 -26 -24z m41 -22 c0 -19 -5 -29 -15 -29 -16 0 -25 28 -16 51 10
25 31 10 31 -22z"/>
<path d="M734 195 c-8 -19 5 -38 22 -31 17 6 17 2 3 -27 -9 -20 -9 -20 9 2
l19 24 6 -23 c7 -26 32 -22 32 6 0 12 -6 18 -17 18 -21 -2 -21 0 -7 29 9 20 9
20 -9 -2 -19 -23 -19 -23 -25 -2 -6 24 -25 28 -33 6z m26 -10 c0 -8 -4 -15
-10 -15 -5 0 -10 7 -10 15 0 8 5 15 10 15 6 0 10 -7 10 -15z m60 -40 c0 -8 -4
-15 -10 -15 -5 0 -10 7 -10 15 0 8 5 15 10 15 6 0 10 -7 10 -15z"/>
<path d="M2298 199 c-2 -6 -2 -26 0 -45 3 -24 9 -34 21 -33 10 0 11 2 4 6 -15
5 -18 50 -4 55 5 2 3 8 -4 15 -9 9 -15 9 -17 2z"/>
<path d="M2808 199 c-2 -6 -2 -26 0 -45 3 -24 9 -34 21 -33 10 0 11 2 4 6 -15
5 -18 50 -4 55 5 2 3 8 -4 15 -9 9 -15 9 -17 2z"/>
<path d="M343 158 c2 -28 6 -33 30 -34 25 -1 27 2 26 35 -1 36 -1 36 -8 6 -9
-42 -38 -45 -45 -6 l-6 31 3 -32z"/>
<path d="M421 151 c1 -36 1 -36 8 -6 8 40 38 46 44 8 4 -28 4 -28 3 2 -1 26
-5 30 -28 31 -26 1 -28 -2 -27 -35z"/>
<path d="M880 187 c0 -4 7 -22 16 -39 15 -30 15 -32 -2 -46 -13 -9 -14 -13 -4
-10 16 5 34 37 44 78 5 21 4 21 -8 -4 l-13 -30 -16 30 c-9 16 -16 25 -17 21z"/>
<path d="M992 152 c1 -37 1 -37 5 -4 3 18 10 32 18 32 8 0 15 -14 18 -32 l4
-33 1 33 c1 20 7 32 16 32 9 0 17 -13 19 -32 l5 -33 -2 35 c-1 34 -2 35 -43
37 l-43 3 2 -38z"/>
<path d="M1106 182 c-3 -5 6 -7 19 -4 14 2 25 0 25 -6 0 -6 -10 -12 -22 -14
-34 -5 -29 -33 5 -34 26 -1 28 2 25 30 -2 23 -9 32 -25 34 -11 2 -24 -1 -27
-6z m39 -42 c-3 -5 -13 -10 -21 -10 -8 0 -14 5 -14 10 0 6 9 10 21 10 11 0 17
-4 14 -10z"/>
<path d="M1185 180 c-8 -14 3 -30 21 -30 8 0 14 -5 14 -11 0 -7 -9 -9 -21 -6
-16 4 -19 3 -11 -5 12 -12 42 -4 42 13 0 6 -9 13 -20 16 -11 3 -20 10 -20 15
0 6 9 8 20 5 11 -3 18 -1 14 4 -7 12 -31 11 -39 -1z"/>
<path d="M1374 176 c-15 -38 22 -74 49 -47 7 7 4 8 -10 5 -12 -3 -24 -1 -27 5
-5 7 3 11 19 11 20 0 26 4 23 18 -4 22 -46 29 -54 8z m41 -6 c3 -5 -3 -10 -15
-10 -12 0 -18 5 -15 10 3 6 10 10 15 10 5 0 12 -4 15 -10z"/>
<path d="M1491 138 c1 -29 3 -45 6 -36 2 9 14 18 26 20 17 2 22 10 22 33 0 25
-4 30 -27 33 -28 3 -28 2 -27 -50z m46 26 c8 -21 -13 -42 -28 -27 -13 13 -5
43 11 43 6 0 13 -7 17 -16z"/>
<path d="M1574 176 c-11 -29 0 -51 26 -51 21 0 25 5 25 30 0 24 -5 31 -23 33
-13 2 -24 -3 -28 -12z m43 -12 c8 -21 -13 -42 -28 -27 -13 13 -5 43 11 43 6 0
13 -7 17 -16z"/>
<path d="M1766 182 c-3 -5 6 -7 19 -4 14 2 25 0 25 -6 0 -6 -10 -12 -22 -14
-34 -5 -29 -33 5 -34 26 -1 28 2 25 30 -2 23 -9 32 -25 34 -11 2 -24 -1 -27
-6z m39 -42 c-3 -5 -13 -10 -21 -10 -8 0 -14 5 -14 10 0 6 9 10 21 10 11 0 17
-4 14 -10z"/>
<path d="M1847 183 c-4 -3 -7 -17 -7 -30 0 -26 25 -42 42 -25 7 7 4 10 -8 9
-13 -1 -19 5 -19 18 0 13 6 20 17 19 10 -1 15 2 12 7 -6 11 -28 12 -37 2z"/>
<path d="M1913 155 c0 -22 2 -30 4 -17 2 12 2 30 0 40 -3 9 -5 -1 -4 -23z"/>
<path d="M1944 176 c-11 -29 0 -51 26 -51 21 0 25 5 25 30 0 24 -5 31 -23 33
-13 2 -24 -3 -28 -12z m43 -12 c8 -21 -13 -42 -28 -27 -13 13 -5 43 11 43 6 0
13 -7 17 -16z"/>
<path d="M2021 151 c1 -36 1 -36 8 -6 8 40 38 46 44 8 4 -28 4 -28 3 2 -1 26
-5 30 -28 31 -26 1 -28 -2 -27 -35z"/>
<path d="M2146 182 c-3 -5 6 -7 19 -4 14 2 25 0 25 -6 0 -6 -10 -12 -22 -14
-34 -5 -29 -33 5 -34 26 -1 28 2 25 30 -2 23 -9 32 -25 34 -11 2 -24 -1 -27
-6z m39 -42 c-3 -5 -13 -10 -21 -10 -8 0 -14 5 -14 10 0 6 9 10 21 10 11 0 17
-4 14 -10z"/>
<path d="M2223 158 c2 -28 6 -33 30 -34 25 -1 27 2 26 35 -1 36 -1 36 -8 6 -9
-42 -38 -45 -45 -6 l-6 31 3 -32z"/>
<path d="M2354 176 c-11 -29 0 -51 26 -51 21 0 25 5 25 30 0 24 -5 31 -23 33
-13 2 -24 -3 -28 -12z m43 -12 c8 -21 -13 -42 -28 -27 -13 13 -5 43 11 43 6 0
13 -7 17 -16z"/>
<path d="M2436 182 c-3 -5 6 -7 19 -4 14 2 25 0 25 -6 0 -6 -10 -12 -22 -14
-34 -5 -29 -33 5 -34 26 -1 28 2 25 30 -2 23 -9 32 -25 34 -11 2 -24 -1 -27
-6z m39 -42 c-3 -5 -13 -10 -21 -10 -8 0 -14 5 -14 10 0 6 9 10 21 10 11 0 17
-4 14 -10z"/>
<path d="M2595 180 c-8 -14 3 -30 21 -30 8 0 14 -5 14 -11 0 -7 -9 -9 -21 -6
-16 4 -19 3 -11 -5 12 -12 42 -4 42 13 0 6 -9 13 -20 16 -11 3 -20 10 -20 15
0 6 9 8 20 5 11 -3 18 -1 14 4 -7 12 -31 11 -39 -1z"/>
<path d="M2667 183 c-4 -3 -7 -17 -7 -30 0 -26 25 -42 42 -25 7 7 4 10 -8 9
-13 -1 -19 5 -19 18 0 13 6 20 17 19 10 -1 15 2 12 7 -6 11 -28 12 -37 2z"/>
<path d="M2731 150 c1 -27 3 -29 6 -10 2 14 11 30 20 37 13 10 13 12 -6 10
-17 -1 -21 -7 -20 -37z"/>
<path d="M2783 155 c0 -22 2 -30 4 -17 2 12 2 30 0 40 -3 9 -5 -1 -4 -23z"/>
<path d="M2866 182 c-3 -5 6 -7 19 -4 14 2 25 0 25 -6 0 -6 -10 -12 -22 -14
-34 -5 -29 -33 5 -34 26 -1 28 2 25 30 -2 23 -9 32 -25 34 -11 2 -24 -1 -27
-6z m39 -42 c-3 -5 -13 -10 -21 -10 -8 0 -14 5 -14 10 0 6 9 10 21 10 11 0 17
-4 14 -10z"/>
<path d="M2986 182 c-3 -5 6 -7 19 -4 14 2 25 0 25 -6 0 -6 -10 -12 -22 -14
-34 -5 -29 -33 5 -34 26 -1 28 2 25 30 -2 23 -9 32 -25 34 -11 2 -24 -1 -27
-6z m39 -42 c-3 -5 -13 -10 -21 -10 -8 0 -14 5 -14 10 0 6 9 10 21 10 11 0 17
-4 14 -10z"/>
<path d="M3101 150 c1 -27 3 -29 6 -10 2 14 11 30 20 37 13 10 13 12 -6 10
-17 -1 -21 -7 -20 -37z"/>
<path d="M3154 176 c-11 -29 0 -51 26 -51 21 0 25 5 25 30 0 24 -5 31 -23 33
-13 2 -24 -3 -28 -12z m43 -12 c8 -21 -13 -42 -28 -27 -13 13 -5 43 11 43 6 0
13 -7 17 -16z"/>
<path d="M3232 152 c1 -37 1 -37 5 -4 3 18 10 32 18 32 8 0 15 -14 18 -32 l4
-33 1 33 c1 20 7 32 16 32 9 0 17 -13 19 -32 l5 -33 -2 35 c-1 34 -2 35 -43
37 l-43 3 2 -38z"/>
<path d="M3344 176 c-15 -38 22 -74 49 -47 7 7 4 8 -10 5 -12 -3 -24 -1 -27 5
-5 7 3 11 19 11 20 0 26 4 23 18 -4 22 -46 29 -54 8z m41 -6 c3 -5 -3 -10 -15
-10 -12 0 -18 5 -15 10 3 6 10 10 15 10 5 0 12 -4 15 -10z"/>
<path d="M3419 175 c6 -13 6 -27 0 -40 -10 -20 -10 -20 5 -1 16 20 16 20 32 0
15 -19 15 -19 5 1 -6 13 -6 27 0 40 10 20 10 20 -5 1 -16 -20 -16 -20 -32 0
-15 19 -15 19 -5 -1z"/>
<path d="M3483 155 c0 -22 2 -30 4 -17 2 12 2 30 0 40 -3 9 -5 -1 -4 -23z"/>
<path d="M3517 183 c-4 -3 -7 -17 -7 -30 0 -26 25 -42 42 -25 7 7 4 10 -8 9
-13 -1 -19 5 -19 18 0 13 6 20 17 19 10 -1 15 2 12 7 -6 11 -28 12 -37 2z"/>
<path d="M3586 182 c-3 -5 6 -7 19 -4 14 2 25 0 25 -6 0 -6 -10 -12 -22 -14
-34 -5 -29 -33 5 -34 26 -1 28 2 25 30 -2 23 -9 32 -25 34 -11 2 -24 -1 -27
-6z m39 -42 c-3 -5 -13 -10 -21 -10 -8 0 -14 5 -14 10 0 6 9 10 21 10 11 0 17
-4 14 -10z"/>
<path d="M3661 151 c1 -36 1 -36 8 -6 8 40 38 46 44 8 4 -28 4 -28 3 2 -1 26
-5 30 -28 31 -26 1 -28 -2 -27 -35z"/>
<path d="M3746 182 c-3 -5 6 -7 19 -4 14 2 25 0 25 -6 0 -6 -10 -12 -22 -14
-34 -5 -29 -33 5 -34 26 -1 28 2 25 30 -2 23 -9 32 -25 34 -11 2 -24 -1 -27
-6z m39 -42 c-3 -5 -13 -10 -21 -10 -8 0 -14 5 -14 10 0 6 9 10 21 10 11 0 17
-4 14 -10z"/>
</g>
</svg>
